<?xml version="1.0" encoding="UTF-8"?><svg id="Layer_1" xmlns="http://www.w3.org/2000/svg" width="316" height="420" viewBox="0 0 316 420"><defs><style>.cls-1{fill:#aca297;}.cls-2{fill:none;stroke:#fff;stroke-miterlimit:10;stroke-width:2px;}</style></defs><rect class="cls-1" width="316" height="420"/><path class="cls-2" d="m188.16,420.3c7.63-69.43-21.2-125.52-39.18-154.25-12.48-19.94-44.74-71.49-79.33-80.43-16.43-4.25-33.5,1.1-31.98,10.59,1.69,10.55,26.21,25.54,41.81,32.33,58.79,25.57,142.99-.13,138.17-50.12-4.31-44.76-77.82-86.58-67.56-123.02,3.41-12.11,18.09-30.84,21.56-35.17.18-.23.16-.96.73-.91,4.37.34,34.33,42,23.95,49.48-9.35,6.73-52.04-13.81-77.53-39.22-6.79-6.77-11.44-12.96-14.54-17.65"/></svg>