<?xml version="1.0" encoding="UTF-8"?><svg id="Layer_1" xmlns="http://www.w3.org/2000/svg" width="600" height="500" viewBox="0 0 600 500"><defs><style>.cls-1,.cls-2{fill:#eeeadf;}.cls-3{fill:#5f5e66;}.cls-2,.cls-4{stroke:#eeeadf;stroke-miterlimit:10;stroke-width:2px;}.cls-4{fill:none;}</style></defs><rect class="cls-3" y="1" width="600" height="500"/><path class="cls-1" d="m136.03,320.41v-141.16h21.4l61.2,103.05h-11.2l60.2-103.05h21.4l.2,141.16h-24.6l-.2-102.24h5.2l-51.2,86.11h-11.6l-52-86.11h6v102.24h-24.8Z"/><line class="cls-2" x1="300" y1="142" x2="300" y2="269"/><line class="cls-4" x1="300.07" y1="262" x2="300.07" y2="391.36"/><path class="cls-1" d="m312.18,179h57.81c17.66,0,31.55,3.02,41.67,9.06,10.12,6.04,15.17,15.55,15.17,28.54,0,7.79-2.45,14.12-7.35,19-4.9,4.87-10.96,8.35-18.18,10.42v.39c8.83,2.08,16.06,5.91,21.68,11.49,5.62,5.59,8.43,12.92,8.43,22.02,0,12.99-5.28,23.05-15.84,30.2-10.56,7.14-24.55,10.72-41.97,10.72h-61.42s0-141.83,0-141.83Zm57.81,60.4c12.04,0,20.71-2.01,26.01-6.04,5.3-4.03,7.95-9.61,7.95-16.75,0-7.14-2.65-12.63-7.95-16.46-5.3-3.83-13.97-5.75-26.01-5.75h-35.17s0,45,0,45h35.17Zm3.61,66.05c12.04,0,20.87-2.3,26.49-6.92,5.62-4.61,8.43-10.81,8.43-18.61,0-7.79-2.81-13.96-8.43-18.51-5.62-4.55-14.45-6.82-26.49-6.82h-38.78s0,50.85,0,50.85h38.78Z"/></svg>