<?xml version="1.0" encoding="UTF-8"?><svg id="Layer_1" xmlns="http://www.w3.org/2000/svg" width="600" height="600" viewBox="0 0 600 600"><defs><style>.cls-1,.cls-2{fill:#eeeadf;}.cls-3{fill:#5f5e66;}.cls-2,.cls-4{stroke:#eeeadf;stroke-miterlimit:10;stroke-width:2px;}.cls-4{fill:none;}</style></defs><rect class="cls-3" y="1" width="600" height="600"/><path class="cls-1" d="m110.03,370.41v-141.16h21.4l61.2,103.05h-11.2l60.2-103.05h21.4l.2,141.16h-24.6l-.2-102.24h5.2l-51.2,86.11h-11.6l-52-86.11h6v102.24h-24.8Z"/><line class="cls-2" x1="300" y1="102" x2="300" y2="229"/><line class="cls-4" x1="300.07" y1="370" x2="300.07" y2="499.36"/><path class="cls-1" d="m335.18,229h57.81c17.66,0,31.55,3.02,41.67,9.06,10.12,6.04,15.17,15.55,15.17,28.54,0,7.79-2.45,14.12-7.35,19-4.9,4.87-10.96,8.35-18.18,10.42v.39c8.83,2.08,16.06,5.91,21.68,11.49,5.62,5.59,8.43,12.92,8.43,22.02,0,12.99-5.28,23.05-15.84,30.2-10.56,7.14-24.55,10.72-41.97,10.72h-61.42s0-141.83,0-141.83Zm57.81,60.4c12.04,0,20.71-2.01,26.01-6.04,5.3-4.03,7.95-9.61,7.95-16.75,0-7.14-2.65-12.63-7.95-16.46-5.3-3.83-13.97-5.75-26.01-5.75h-35.17s0,45,0,45h35.17Zm3.61,66.05c12.04,0,20.87-2.3,26.49-6.92,5.62-4.61,8.43-10.81,8.43-18.61,0-7.79-2.81-13.96-8.43-18.51-5.62-4.55-14.45-6.82-26.49-6.82h-38.78s0,50.85,0,50.85h38.78Z"/><g><path class="cls-1" d="m289.42,355.93l.02-7.06c0-3.38.89-6.15,2.65-8.3,1.76-2.15,4.23-3.22,7.42-3.21h.89c3.19.01,5.66,1.1,7.41,3.26,1.75,2.16,2.62,4.93,2.61,8.32l-.02,7.06-20.98-.07Zm19.73-7c0-2.97-.74-5.35-2.24-7.12-1.5-1.77-3.67-2.67-6.52-2.68h-.89c-2.84-.01-5.02.86-6.53,2.63-1.51,1.77-2.26,4.13-2.27,7.11v5.31s18.43.06,18.43.06v-5.31Z"/><path class="cls-1" d="m289.47,332.2l.03-15.46h1.27s-.03,13.71-.03,13.71l8.26.03.02-11.83h1.27s-.02,11.83-.02,11.83l8.92.03.03-13.91h1.27s-.03,15.66-.03,15.66l-20.98-.07Z"/><path class="cls-1" d="m304.65,313.7v-1.75s.18,0,.18,0c1.53,0,2.71-.63,3.55-1.9.84-1.27,1.26-3.07,1.26-5.38s-.42-4.08-1.26-5.31c-.85-1.23-1.9-1.85-3.15-1.85-1.1,0-2.02.46-2.74,1.4s-1.42,2.96-2.1,6.06c-.66,3.04-1.41,5.16-2.26,6.34-.85,1.18-2.02,1.77-3.52,1.77-1.58,0-2.89-.74-3.94-2.21-1.05-1.47-1.58-3.49-1.57-6.07,0-2.59.61-4.65,1.81-6.18,1.2-1.53,2.6-2.29,4.22-2.29h.17s0,1.73,0,1.73h-.17c-1.34,0-2.47.56-3.37,1.7-.9,1.14-1.35,2.82-1.36,5.04,0,2.23.39,3.87,1.17,4.93.79,1.06,1.82,1.59,3.09,1.6,1,0,1.85-.51,2.56-1.54.71-1.03,1.39-3.06,2.05-6.08s1.43-5.1,2.3-6.23c.87-1.14,2.09-1.7,3.66-1.7,1.67,0,3.04.8,4.12,2.4,1.07,1.59,1.61,3.76,1.6,6.49s-.56,4.92-1.65,6.57-2.58,2.47-4.47,2.46h-.17Z"/><path class="cls-1" d="m289.55,291.15v-1.73s20.98.07,20.98.07v1.73s-20.98-.07-20.98-.07Z"/><path class="cls-1" d="m299.61,284.17c-3.39-.01-5.98-1.02-7.77-3.03-1.79-2.01-2.68-4.48-2.68-7.41,0-3.09.62-5.43,1.84-7,1.22-1.57,2.77-2.5,4.63-2.77l.13-.02v1.75s-.15.05-.15.05c-1.34.25-2.54.97-3.59,2.16-1.04,1.19-1.57,3.12-1.58,5.79,0,2.49.78,4.56,2.35,6.21,1.57,1.65,3.84,2.48,6.81,2.49h.89c2.97.01,5.24-.8,6.82-2.44,1.58-1.64,2.37-3.95,2.38-6.94,0-1.58-.14-2.94-.42-4.1-.29-1.16-.74-2.25-1.38-3.27l-6.01-.02-.02,7.78h-1.27s.02-9.45.02-9.45l7.82.02c.67.88,1.26,2.07,1.78,3.56.51,1.49.77,3.32.77,5.48,0,3.41-.91,6.12-2.71,8.14-1.8,2.02-4.4,3.02-7.79,3.01h-.89Z"/><path class="cls-1" d="m289.61,260.02v-2.06s17.67-14.23,17.67-14.23c.3-.24.59-.47.89-.68.29-.22.56-.41.79-.58v-.14c-.29.02-.56.04-.82.06-.26.02-.53.03-.82.02l-17.67-.06v-1.7s20.98.07,20.98.07v2.08s-17.71,14.25-17.71,14.25c-.3.24-.61.49-.95.76-.33.27-.6.45-.8.53v.16c.31-.06.65-.1,1.03-.12.38-.02.71-.03,1-.03l17.39.06v1.68s-20.98-.07-20.98-.07Z"/></g></svg>