<svg width="100" height="100" viewBox="0 0 100 100" fill="none" xmlns="http://www.w3.org/2000/svg">
<g clip-path="url(#clip0_81_441)">
<path d="M0 36.1905C0 23.5226 0 17.1887 2.46533 12.3502C4.63389 8.09417 8.09417 4.63389 12.3502 2.46533C17.1887 0 23.5226 0 36.1905 0H63.8095C76.4774 0 82.8113 0 87.6498 2.46533C91.9058 4.63389 95.3661 8.09417 97.5347 12.3502C100 17.1887 100 23.5226 100 36.1905V63.8095C100 76.4774 100 82.8113 97.5347 87.6498C95.3661 91.9058 91.9058 95.3661 87.6498 97.5347C82.8113 100 76.4774 100 63.8095 100H36.1905C23.5226 100 17.1887 100 12.3502 97.5347C8.09417 95.3661 4.63389 91.9058 2.46533 87.6498C0 82.8113 0 76.4774 0 63.8095V36.1905Z" fill="#EFEBE0"/>
<path d="M48.4587 62.8438H32.9625L29.8096 72.8891C29.7221 73.2623 29.3784 73.5267 29.0046 73.5084H21.1559C20.7083 73.5084 20.5518 73.2561 20.6863 72.7515L34.1029 33.1207C34.2371 32.708 34.3713 32.2378 34.5055 31.7102C34.681 30.7923 34.7708 29.8592 34.7738 28.9238C34.7354 28.6474 34.9783 28.4033 35.2434 28.4421H45.9095C46.222 28.4421 46.4009 28.5568 46.4462 28.7862L61.6743 72.8203C61.8084 73.2793 61.6742 73.5087 61.2717 73.5083H52.5507C52.2449 73.5431 51.9528 73.3334 51.88 73.0267L48.4587 62.8438ZM35.3775 54.1746H45.9767C44.2353 48.224 42.27 42.3515 40.6772 36.3545C38.9586 42.3616 37.0836 48.3446 35.3775 54.1746Z" fill="#988574"/>
<path d="M70.7296 35.7351C70.0454 35.7633 69.3631 35.643 68.7273 35.3822C68.0915 35.1213 67.5166 34.7258 67.0401 34.2214C66.5649 33.6952 66.1958 33.0778 65.954 32.4047C65.7122 31.7317 65.6025 31.0163 65.6312 30.2996C65.6068 29.59 65.7286 28.8832 65.9887 28.2252C66.2488 27.5672 66.6413 26.9728 67.1406 26.481C67.635 25.9943 68.2186 25.6129 68.8577 25.359C69.4968 25.1051 70.1786 24.9837 70.8637 25.0018C72.4738 25.0018 73.7372 25.4948 74.654 26.481C75.1167 26.9935 75.4764 27.5946 75.7124 28.2498C75.9483 28.9051 76.056 29.6016 76.0291 30.2996C76.0572 31.0191 75.9439 31.737 75.6962 32.4107C75.4484 33.0844 75.0712 33.7002 74.5868 34.2214C74.0807 34.7332 73.4766 35.1319 72.8128 35.3924C72.1489 35.6529 71.4396 35.7696 70.7296 35.7351ZM66.1007 72.82V39.932C66.1007 39.5193 66.279 39.3128 66.6374 39.3128H74.8888C75.2462 39.3128 75.4251 39.5192 75.4255 39.932V72.82C75.4255 73.2791 75.2466 73.5085 74.8888 73.5081H66.7046C66.3022 73.5081 66.1009 73.2788 66.1007 72.82Z" fill="#988574"/>
</g>
<defs>
<clipPath id="clip0_81_441">
<rect width="100" height="100" fill="white"/>
</clipPath>
</defs>
</svg>
