<svg width="70" height="70" viewBox="0 0 70 70" fill="none" xmlns="http://www.w3.org/2000/svg">
<g clip-path="url(#clip0_127_502)">
<path d="M0 25.3333C0 16.4658 0 12.0321 1.72573 8.64515C3.24373 5.66592 5.66592 3.24373 8.64515 1.72573C12.0321 0 16.4658 0 25.3333 0H44.6667C53.5342 0 57.9679 0 61.3549 1.72573C64.3341 3.24373 66.7563 5.66592 68.2743 8.64515C70 12.0321 70 16.4658 70 25.3333V44.6667C70 53.5342 70 57.9679 68.2743 61.3549C66.7563 64.3341 64.3341 66.7563 61.3549 68.2743C57.9679 70 53.5342 70 44.6667 70H25.3333C16.4658 70 12.0321 70 8.64515 68.2743C5.66592 66.7563 3.24373 64.3341 1.72573 61.3549C0 57.9679 0 53.5342 0 44.6667V25.3333Z" fill="#7C459C"/>
<path d="M33.921 43.9907H23.0736L20.8666 51.0224C20.8053 51.2836 20.5648 51.4687 20.3031 51.4559H14.809C14.4957 51.4559 14.3861 51.2793 14.4803 50.9261L23.8719 23.1845C23.9659 22.8956 24.0598 22.5665 24.1537 22.1972C24.2766 21.5546 24.3395 20.9015 24.3416 20.2467C24.3146 20.0532 24.4847 19.8823 24.6703 19.9095H32.1365C32.3553 19.9095 32.4805 19.9898 32.5122 20.1503L43.1719 50.9742C43.2657 51.2955 43.1718 51.4561 42.89 51.4558H36.7854C36.5713 51.4802 36.3668 51.3334 36.3159 51.1187L33.921 43.9907ZM24.7641 37.9222H32.1835C30.9646 33.7568 29.5889 29.6461 28.4739 25.4482C27.2709 29.6532 25.9584 33.8412 24.7641 37.9222Z" fill="#EFEBE0"/>
<path d="M49.5106 25.0146C49.0317 25.0343 48.5541 24.9501 48.109 24.7675C47.664 24.5849 47.2615 24.308 46.9279 23.955C46.5953 23.5866 46.3369 23.1544 46.1677 22.6833C45.9984 22.2122 45.9216 21.7114 45.9417 21.2097C45.9246 20.713 46.0099 20.2182 46.192 19.7576C46.374 19.297 46.6488 18.881 46.9983 18.5367C47.3444 18.196 47.7529 17.929 48.2003 17.7513C48.6476 17.5736 49.1249 17.4886 49.6045 17.5012C50.7315 17.5012 51.6159 17.8464 52.2577 18.5367C52.5816 18.8955 52.8334 19.3162 52.9985 19.7749C53.1637 20.2336 53.2391 20.7211 53.2203 21.2097C53.2399 21.7134 53.1606 22.2159 52.9872 22.6875C52.8138 23.1591 52.5497 23.5901 52.2107 23.955C51.8563 24.3132 51.4335 24.5923 50.9688 24.7747C50.5041 24.957 50.0076 25.0387 49.5106 25.0146ZM46.2704 50.974V27.9524C46.2704 27.6635 46.3952 27.5189 46.6461 27.5189H52.422C52.6722 27.5189 52.7975 27.6634 52.7977 27.9524V50.974C52.7977 51.2954 52.6725 51.4559 52.422 51.4557H46.6931C46.4114 51.4557 46.2705 51.2951 46.2704 50.974Z" fill="#EFEBE0"/>
</g>
<defs>
<clipPath id="clip0_127_502">
<rect width="70" height="70" fill="white"/>
</clipPath>
</defs>
</svg>
