<?xml version="1.0" encoding="UTF-8"?><svg id="Layer_1" xmlns="http://www.w3.org/2000/svg" width="316" height="420" viewBox="0 0 316 420"><defs><style>.cls-1{fill:#aca297;}.cls-2{fill:none;stroke:#fff;stroke-miterlimit:10;stroke-width:2px;}</style></defs><rect class="cls-1" width="316" height="420"/><path class="cls-2" d="m113.19,15.85c-5.49,69.63,25.05,124.81,43.91,152.98,13.08,19.54,46.92,70.08,81.77,77.95,16.56,3.74,33.45-2.13,31.64-11.57-2.01-10.49-26.98-24.72-42.79-31.03-59.55-23.76-142.92,4.53-136.56,54.35,5.69,44.61,80.44,84.15,71.31,120.88-3.03,12.21-17.14,31.38-20.47,35.82-.17.23-.13.96-.7.94-4.37-.21-35.61-40.92-25.46-48.72,9.14-7.02,52.44,12.2,78.7,36.82,7,6.56,11.83,12.61,15.07,17.19"/></svg>