<svg width="70" height="70" viewBox="0 0 70 70" fill="none" xmlns="http://www.w3.org/2000/svg">
<path fill-rule="evenodd" clip-rule="evenodd" d="M9.71885 63.0022L4.10156 0H65.8266L60.2033 62.9919L34.9267 70L9.71885 63.0022Z" fill="#7C459C"/>
<path fill-rule="evenodd" clip-rule="evenodd" d="M35.0159 64.64L55.4152 59.0281L60.1947 5.24683H35.0159V64.64Z" fill="#5F5E66"/>
<path fill-rule="evenodd" clip-rule="evenodd" d="M16.9595 28.3935L17.6361 36.1091L35.0159 28.3935V20.6654L16.9595 28.3935Z" fill="#EFDDC7"/>
<path fill-rule="evenodd" clip-rule="evenodd" d="M54.2645 12.416L35.0159 20.6654V28.3935L53.6008 20.1316L54.2645 12.416Z" fill="#F25C05"/>
<path fill-rule="evenodd" clip-rule="evenodd" d="M35.0159 48.5812L34.9562 48.5902L26.3371 46.2755L25.774 40.1212H18.0168L19.0993 52.2455L34.9545 56.6356L35.0159 56.6211V48.5812Z" fill="#F25C05"/>
<path fill-rule="evenodd" clip-rule="evenodd" d="M35.0159 28.3936V36.1092H44.4524L43.5947 46.1967L35.0159 48.588V56.6272L50.8184 52.2371L52.8993 28.3936H35.0159Z" fill="#EFEBE0"/>
<path fill-rule="evenodd" clip-rule="evenodd" d="M35.0159 28.3936H16.9595L17.6361 36.1092H35.0159V28.3936Z" fill="#F25C05"/>
<path fill-rule="evenodd" clip-rule="evenodd" d="M35.0159 20.1316V12.416H34.9375H15.5876L16.2723 20.1316H35.0159Z" fill="#F25C05"/>
<path fill-rule="evenodd" clip-rule="evenodd" d="M35.0159 12.416V20.0349V20.1316H53.6008L54.2645 12.416H35.0159Z" fill="#EFEBE0"/>
</svg>
