<svg width="100" height="100" viewBox="0 0 100 100" fill="none" xmlns="http://www.w3.org/2000/svg">
<path fill-rule="evenodd" clip-rule="evenodd" d="M13.8841 90.0032L5.85938 0H94.0379L86.0046 89.9884L49.8953 100L13.8841 90.0032Z" fill="#988574"/>
<path fill-rule="evenodd" clip-rule="evenodd" d="M50.0229 92.3428L79.1649 84.3258L85.9928 7.49536H50.0229V92.3428Z" fill="#A5948A"/>
<path fill-rule="evenodd" clip-rule="evenodd" d="M24.228 40.5621L25.1947 51.5845L50.0229 40.5621V29.522L24.228 40.5621Z" fill="#EFDDC7"/>
<path fill-rule="evenodd" clip-rule="evenodd" d="M77.521 17.7371L50.0229 29.5219V40.5621L76.5729 28.7594L77.521 17.7371Z" fill="#F8F0E7"/>
<path fill-rule="evenodd" clip-rule="evenodd" d="M50.0227 69.4019L49.9373 69.4147L37.6243 66.108L36.8199 57.3162H25.7383L27.2847 74.6366L49.9349 80.9081L50.0227 80.8874V69.4019Z" fill="#F8F0E7"/>
<path fill-rule="evenodd" clip-rule="evenodd" d="M50.0229 40.562V51.5843H63.5037L62.2784 65.9951L50.0229 69.4112V80.8958L72.598 74.6243L75.5707 40.562H50.0229Z" fill="#EFEBE0"/>
<path fill-rule="evenodd" clip-rule="evenodd" d="M50.0229 40.562H24.228L25.1947 51.5843H50.0229V40.562Z" fill="#F8F0E7"/>
<path fill-rule="evenodd" clip-rule="evenodd" d="M50.0227 28.7594V17.7371H49.9107H22.2681L23.2462 28.7594H50.0227Z" fill="#F8F0E7"/>
<path fill-rule="evenodd" clip-rule="evenodd" d="M50.0229 17.7371V28.6212V28.7594H76.5729L77.521 17.7371H50.0229Z" fill="#EFEBE0"/>
</svg>
