<svg width="70" height="70" viewBox="0 0 70 70" fill="none" xmlns="http://www.w3.org/2000/svg">
<path d="M23.4245 70C29.8645 70 35.0911 64.7733 35.0911 58.3333V46.6666H23.4245C16.9845 46.6666 11.7578 51.8933 11.7578 58.3333C11.7578 64.7733 16.9845 70 23.4245 70Z" fill="#7C459C"/>
<path d="M11.7578 35C11.7578 28.56 16.9845 23.3334 23.4245 23.3334H35.0911V46.6667H23.4245C16.9845 46.6667 11.7578 41.44 11.7578 35Z" fill="#7C459C"/>
<path d="M11.7578 11.6667C11.7578 5.22667 16.9845 0 23.4245 0H35.0911V23.3333H23.4245C16.9845 23.3333 11.7578 18.1067 11.7578 11.6667Z" fill="#F25C05"/>
<path d="M35.0911 0H46.7578C53.1978 0 58.4245 5.22667 58.4245 11.6667C58.4245 18.1067 53.1978 23.3333 46.7578 23.3333H35.0911V0Z" fill="#7C459C"/>
<path d="M58.4245 35C58.4245 41.44 53.1978 46.6667 46.7578 46.6667C40.3178 46.6667 35.0911 41.44 35.0911 35C35.0911 28.56 40.3178 23.3334 46.7578 23.3334C53.1978 23.3334 58.4245 28.56 58.4245 35Z" fill="#F25C05"/>
</svg>
