<svg width="70" height="70" viewBox="0 0 70 70" fill="none" xmlns="http://www.w3.org/2000/svg">
<path fill-rule="evenodd" clip-rule="evenodd" d="M35 6.55286C18.8855 6.55286 5.83337 19.6049 5.83337 35.7195C5.83337 48.6258 14.1823 59.5268 25.7761 63.3914C27.2344 63.6466 27.7813 62.7716 27.7813 62.006C27.7813 61.3133 27.7448 59.0164 27.7448 56.5737C20.4167 57.9226 18.5209 54.7872 17.9375 53.1466C17.6094 52.3081 16.1875 49.7195 14.948 49.0268C13.9271 48.4799 12.4688 47.131 14.9115 47.0945C17.2084 47.0581 18.849 49.2091 19.3959 50.0841C22.0209 54.4956 26.2136 53.256 27.8907 52.4904C28.1459 50.5945 28.9115 49.3185 29.75 48.5893C23.2605 47.8601 16.4792 45.3445 16.4792 34.1883C16.4792 31.0164 17.6094 28.3914 19.4688 26.3497C19.1771 25.6206 18.1563 22.631 19.7605 18.6206C19.7605 18.6206 22.2032 17.8549 27.7813 21.6101C30.1146 20.9539 32.5938 20.6258 35.073 20.6258C37.5521 20.6258 40.0313 20.9539 42.3646 21.6101C47.9428 17.8185 50.3855 18.6206 50.3855 18.6206C51.9896 22.631 50.9688 25.6206 50.6771 26.3497C52.5365 28.3914 53.6667 30.9799 53.6667 34.1883C53.6667 45.381 46.849 47.8601 40.3594 48.5893C41.4167 49.5008 42.3282 51.2508 42.3282 53.9851C42.3282 57.8862 42.2917 61.0216 42.2917 62.006C42.2917 62.7716 42.8386 63.6831 44.2969 63.3914C50.087 61.4367 55.1184 57.7155 58.6828 52.7515C62.2472 47.7875 64.1651 41.8307 64.1667 35.7195C64.1667 19.6049 51.1146 6.55286 35 6.55286Z" fill="#5F5E66"/>
</svg>
