<svg width="982" height="915" viewBox="0 0 982 915" fill="none" xmlns="http://www.w3.org/2000/svg">
<path d="M70 808.4H15.12L15.12 789.2C15.12 783.333 16.08 778.347 18 774.24C19.8667 770.08 22.8267 766.907 26.88 764.72C30.88 762.533 36.1067 761.44 42.56 761.44C48.96 761.44 54.1867 762.533 58.24 764.72C62.2933 766.907 65.28 770.08 67.2 774.24C69.0667 778.347 70 783.333 70 789.2L70 808.4ZM65.44 803.28L65.44 789.52C65.44 786.053 65.0667 782.933 64.32 780.16C63.5733 777.387 62.3467 775.013 60.64 773.04C58.88 771.013 56.6133 769.467 53.84 768.4C51.0133 767.333 47.5733 766.8 43.52 766.8H41.92C37.7067 766.8 34.1867 767.333 31.36 768.4C28.5333 769.467 26.2667 770.987 24.56 772.96C22.8 774.933 21.5467 777.333 20.8 780.16C20.0533 782.933 19.68 786.053 19.68 789.52L19.68 803.28H65.44ZM18.64 751.099H12.16L12.16 746.459H18.64L18.64 751.099ZM70 751.099H27.92L27.92 746.459H70V751.099ZM84.56 727.727C84.56 729.807 84.1067 731.727 83.2 733.487C82.2933 735.194 81.0133 736.554 79.36 737.567C77.76 738.581 75.9467 739.087 73.92 739.087C71.5733 739.087 69.5467 738.501 67.84 737.327C66.08 736.101 64.7733 734.474 63.92 732.447C63.3333 733.887 62.4533 734.981 61.28 735.727C60.0533 736.421 58.7733 736.767 57.44 736.767C55.68 736.767 54.1333 736.154 52.8 734.927C51.4133 733.647 50.5333 732.021 50.16 730.047C48.9333 731.754 47.4667 733.141 45.76 734.207C44 735.221 42.08 735.727 40 735.727C37.5467 735.727 35.3333 735.141 33.36 733.967C31.3867 732.794 29.84 731.007 28.72 728.607C27.5467 726.207 26.96 723.141 26.96 719.407C26.96 717.594 27.12 715.941 27.44 714.447C27.7067 712.901 28.1067 711.514 28.64 710.287C28.1067 708.421 27.2 706.927 25.92 705.807C24.64 704.634 23.0667 703.861 21.2 703.487L21.2 698.767C22.64 698.874 24.0533 699.274 25.44 699.967C26.7733 700.607 27.92 701.541 28.88 702.767C29.84 703.941 30.4533 705.407 30.72 707.167C32 705.781 33.44 704.767 35.04 704.127C36.64 703.434 38.2933 703.087 40 703.087C42.4533 703.087 44.6667 703.674 46.64 704.847C48.6133 706.021 50.1867 707.807 51.36 710.207C52.5333 712.554 53.12 715.594 53.12 719.327V726.047C53.12 727.754 53.44 729.194 54.08 730.367C54.72 731.487 55.84 732.047 57.44 732.047C58.8267 732.047 59.8933 731.461 60.64 730.287C61.3333 729.061 61.68 727.541 61.68 725.727V709.727C61.68 706.687 62.7467 704.207 64.88 702.287C66.96 700.367 69.5467 699.407 72.64 699.407C74.88 699.407 76.9067 699.941 78.72 701.007C80.5333 702.074 81.9467 703.567 82.96 705.487C84.0267 707.407 84.56 709.594 84.56 712.047V727.727ZM80.72 727.007V712.207C80.72 710.714 80.3733 709.381 79.68 708.207C79.04 706.981 78.16 705.994 77.04 705.247C75.92 704.501 74.6933 704.127 73.36 704.127C71.12 704.127 69.3067 704.767 67.92 706.047C66.5333 707.327 65.84 708.874 65.84 710.687V727.007C65.84 729.034 66.5867 730.767 68.08 732.207C69.52 733.647 71.28 734.367 73.36 734.367C75.6 734.367 77.3867 733.647 78.72 732.207C80.0533 730.767 80.72 729.034 80.72 727.007ZM49.2 719.407C49.2 715.461 48.3733 712.554 46.72 710.687C45.0667 708.767 42.8267 707.807 40 707.807C37.2267 707.807 35.0133 708.767 33.36 710.687C31.7067 712.554 30.88 715.461 30.88 719.407C30.88 723.301 31.7067 726.207 33.36 728.127C35.0133 730.047 37.2267 731.007 40 731.007C41.76 731.007 43.3333 730.581 44.72 729.727C46.1067 728.874 47.2 727.594 48 725.887C48.8 724.127 49.2 721.967 49.2 719.407ZM18.64 692.896H12.16V688.256H18.64L18.64 692.896ZM70 692.896H27.92L27.92 688.256H70V692.896ZM70.88 667.924C70.88 669.738 70.5867 671.178 70 672.244C69.4133 673.258 68.56 673.978 67.44 674.404C66.32 674.831 65.04 675.044 63.6 675.044H32L32 680.804H27.92L27.92 674.964L16.24 674.084V670.404H27.92L27.92 662.004H32L32 670.404H62.48C64.0267 670.404 65.1467 670.218 65.84 669.844C66.5333 669.418 66.88 668.484 66.88 667.044V662.004H69.76C70.0267 662.538 70.24 663.151 70.4 663.844C70.56 664.538 70.6667 665.258 70.72 666.004C70.8267 666.698 70.88 667.338 70.88 667.924ZM70.96 643.746C70.96 645.56 70.7467 647.293 70.32 648.946C69.8933 650.546 69.2267 651.96 68.32 653.186C67.36 654.413 66.16 655.373 64.72 656.066C63.28 656.76 61.52 657.106 59.44 657.106C56.5067 657.106 54.1333 656.386 52.32 654.946C50.5067 653.453 49.12 651.4 48.16 648.786C47.1467 646.173 46.4533 643.08 46.08 639.506C45.7067 635.933 45.52 632.066 45.52 627.906H39.6C37.7867 627.906 36.24 628.253 34.96 628.946C33.6267 629.586 32.64 630.76 32 632.466C31.3067 634.12 30.96 636.44 30.96 639.426C30.96 642.306 31.3333 644.573 32.08 646.226C32.8267 647.826 33.8133 648.973 35.04 649.666C36.2667 650.36 37.6 650.706 39.04 650.706H40.4V655.186C40.1333 655.24 39.8667 655.266 39.6 655.266C39.3333 655.266 39.0133 655.266 38.64 655.266C35.92 655.266 33.7067 654.573 32 653.186C30.2933 651.746 29.04 649.773 28.24 647.266C27.3867 644.706 26.96 641.773 26.96 638.466C26.96 635.213 27.44 632.466 28.4 630.226C29.36 627.986 30.72 626.28 32.48 625.106C34.24 623.88 36.3733 623.266 38.88 623.266H64.24C65.2533 623.266 65.9467 623.106 66.32 622.786C66.6933 622.413 66.88 621.88 66.88 621.186V617.586H69.76C70.1333 618.493 70.4 619.373 70.56 620.226C70.7733 621.026 70.88 621.826 70.88 622.626C70.88 624.066 70.56 625.16 69.92 625.906C69.28 626.6 68.4267 627.08 67.36 627.346C66.24 627.613 65.0133 627.746 63.68 627.746V628.306C65.2267 629.373 66.56 630.733 67.68 632.386C68.7467 633.986 69.5467 635.773 70.08 637.746C70.6667 639.666 70.96 641.666 70.96 643.746ZM66.88 643.106C66.88 641.293 66.5867 639.506 66 637.746C65.4133 635.933 64.5867 634.306 63.52 632.866C62.4 631.373 61.0933 630.173 59.6 629.266C58.0533 628.36 56.3467 627.906 54.48 627.906H49.52C49.52 633.4 49.8133 637.933 50.4 641.506C50.9867 645.08 52 647.746 53.44 649.506C54.88 651.213 56.88 652.066 59.44 652.066C61.2 652.066 62.64 651.666 63.76 650.866C64.88 650.066 65.68 649 66.16 647.666C66.64 646.28 66.88 644.76 66.88 643.106ZM70 611.412H12.16L12.16 606.772H70V611.412ZM70 577.656H15.04L15.04 554.696C15.04 548.723 16.0267 543.683 18 539.576C19.9733 535.416 22.9867 532.27 27.04 530.136C31.04 527.95 36.1867 526.856 42.48 526.856C48.72 526.856 53.8933 527.95 58 530.136C62.0533 532.27 65.0667 535.416 67.04 539.576C69.0133 543.683 70 548.723 70 554.696V577.656ZM58.8 563.336V554.856C58.8 552.616 58.48 550.67 57.84 549.016C57.2 547.363 56.2667 545.976 55.04 544.856C53.8133 543.736 52.2933 542.91 50.48 542.376C48.6667 541.843 46.5867 541.576 44.24 541.576H40.88C38.48 541.576 36.3733 541.843 34.56 542.376C32.7467 542.91 31.2267 543.736 30 544.856C28.7733 545.976 27.84 547.363 27.2 549.016C26.56 550.67 26.24 552.616 26.24 554.856L26.24 563.336H58.8ZM70.96 497.666C70.96 502.466 70.1867 506.546 68.64 509.906C67.04 513.266 64.6133 515.852 61.36 517.666C58.1067 519.426 53.9467 520.306 48.88 520.306C43.92 520.306 39.8133 519.426 36.56 517.666C33.3067 515.906 30.88 513.372 29.28 510.066C27.68 506.759 26.88 502.786 26.88 498.146C26.88 493.559 27.6533 489.692 29.2 486.546C30.7467 483.346 33.12 480.919 36.32 479.266C39.52 477.612 43.6533 476.786 48.72 476.786H51.52L51.52 507.026C53.76 507.026 55.6533 506.706 57.2 506.066C58.7467 505.426 59.92 504.439 60.72 503.106C61.52 501.772 61.92 499.986 61.92 497.746C61.92 496.412 61.76 495.239 61.44 494.226C61.12 493.212 60.6667 492.359 60.08 491.666C59.44 490.972 58.6933 490.439 57.84 490.066C56.9867 489.692 56.0267 489.506 54.96 489.506V476.786C57.52 476.786 59.8133 477.266 61.84 478.226C63.8133 479.132 65.4933 480.492 66.88 482.306C68.2133 484.119 69.2267 486.332 69.92 488.946C70.6133 491.506 70.96 494.412 70.96 497.666ZM44.24 506.946L44.24 490.146C42.8533 490.146 41.6533 490.332 40.64 490.706C39.5733 491.026 38.6933 491.532 38 492.226C37.3067 492.866 36.8 493.666 36.48 494.626C36.1067 495.532 35.92 496.599 35.92 497.826C35.92 499.746 36.24 501.346 36.88 502.626C37.52 503.906 38.4533 504.892 39.68 505.586C40.9067 506.279 42.4267 506.732 44.24 506.946ZM70.96 450.694C70.96 453.468 70.6667 456.081 70.08 458.534C69.4933 460.934 68.64 463.068 67.52 464.934C66.4 466.748 65.0133 468.188 63.36 469.254C61.7067 470.268 59.7867 470.774 57.6 470.774C57.3867 470.774 57.2 470.774 57.04 470.774C56.8267 470.774 56.64 470.748 56.48 470.694L56.48 458.294C56.5867 458.294 56.72 458.294 56.88 458.294C56.9867 458.294 57.0933 458.294 57.2 458.294C58.3733 458.241 59.36 457.868 60.16 457.174C60.9067 456.428 61.4667 455.468 61.84 454.294C62.16 453.121 62.32 451.841 62.32 450.454C62.32 449.441 62.2133 448.374 62 447.254C61.7867 446.081 61.4133 445.094 60.88 444.294C60.3467 443.494 59.5733 443.094 58.56 443.094C57.44 443.094 56.5867 443.601 56 444.614C55.4133 445.574 54.9333 446.881 54.56 448.534C54.1333 450.134 53.7333 451.868 53.36 453.734C52.9333 455.601 52.4533 457.494 51.92 459.414C51.3867 461.281 50.6667 463.014 49.76 464.614C48.8 466.161 47.5733 467.414 46.08 468.374C44.5867 469.334 42.6933 469.814 40.4 469.814C37.9467 469.814 35.8667 469.308 34.16 468.294C32.4 467.228 30.9867 465.788 29.92 463.974C28.8533 462.161 28.08 460.081 27.6 457.734C27.12 455.334 26.88 452.801 26.88 450.134C26.88 447.681 27.12 445.361 27.6 443.174C28.08 440.934 28.8267 438.934 29.84 437.174C30.8 435.361 32.0533 433.948 33.6 432.934C35.0933 431.921 36.8533 431.414 38.88 431.414C39.1467 431.414 39.44 431.441 39.76 431.494C40.0267 431.494 40.2133 431.494 40.32 431.494V443.814H39.68C38.7733 443.814 38.0267 444.108 37.44 444.694C36.8533 445.281 36.4 446.081 36.08 447.094C35.7067 448.108 35.52 449.228 35.52 450.454C35.52 451.254 35.6 452.054 35.76 452.854C35.8667 453.601 36.0533 454.294 36.32 454.934C36.5333 455.574 36.8533 456.108 37.28 456.534C37.7067 456.908 38.24 457.094 38.88 457.094C39.68 457.094 40.3467 456.748 40.88 456.054C41.36 455.361 41.76 454.428 42.08 453.254C42.4 452.028 42.7467 450.694 43.12 449.254C43.5467 447.281 44 445.201 44.48 443.014C44.9067 440.828 45.5467 438.774 46.4 436.854C47.2 434.881 48.4267 433.308 50.08 432.134C51.68 430.908 53.8933 430.294 56.72 430.294C59.3867 430.294 61.6533 430.828 63.52 431.894C65.3333 432.961 66.8 434.428 67.92 436.294C68.9867 438.161 69.76 440.321 70.24 442.774C70.72 445.228 70.96 447.868 70.96 450.694ZM22.16 422.446H12.08L12.08 409.326H22.16L22.16 422.446ZM70 422.446H27.84L27.84 409.326H70L70 422.446ZM85.76 392.599C85.76 394.466 85.3333 396.226 84.48 397.879C83.68 399.533 82.5067 400.866 80.96 401.879C79.4667 402.839 77.7067 403.319 75.68 403.319C73.44 403.319 71.5467 402.653 70 401.319C68.5067 399.933 67.3867 398.386 66.64 396.679C65.84 397.906 64.8533 398.919 63.68 399.719C62.4533 400.466 61.0933 400.839 59.6 400.839C57.52 400.839 55.76 400.066 54.32 398.519C52.88 396.973 51.92 395.159 51.44 393.079C50.2133 394.999 48.6933 396.573 46.88 397.799C45.0667 398.973 43.04 399.559 40.8 399.559C37.5467 399.559 34.9067 398.706 32.88 396.999C30.8533 395.239 29.36 392.839 28.4 389.799C27.3867 386.759 26.88 383.293 26.88 379.399C26.88 377.853 26.96 376.466 27.12 375.239C27.2267 373.959 27.4133 372.813 27.68 371.799C26.4 369.666 25.0667 368.199 23.68 367.399C22.2933 366.599 21.1733 366.173 20.32 366.119L20.32 354.679C22.4533 354.679 24.2667 355.053 25.76 355.799C27.2 356.546 28.3733 357.613 29.28 358.999C30.1867 360.386 30.88 362.039 31.36 363.959C32.5333 362.519 33.9467 361.399 35.6 360.599C37.2 359.799 38.9333 359.399 40.8 359.399C43.84 359.399 46.4 360.173 48.48 361.719C50.5067 363.213 52.0533 365.293 53.12 367.959C54.1867 370.626 54.72 373.693 54.72 377.159V383.399C54.72 384.893 54.96 386.013 55.44 386.759C55.8667 387.453 56.4533 387.799 57.2 387.799C57.8933 387.799 58.5067 387.479 59.04 386.839C59.52 386.199 59.76 385.106 59.76 383.559L59.76 367.319C59.76 363.213 60.9333 360.066 63.28 357.879C65.5733 355.693 68.5067 354.599 72.08 354.599C74.8 354.599 77.1733 355.346 79.2 356.839C81.28 358.333 82.88 360.333 84 362.839C85.1733 365.293 85.76 368.039 85.76 371.079V392.599ZM77.76 386.279V372.439C77.76 371.533 77.5733 370.733 77.2 370.039C76.88 369.346 76.4 368.813 75.76 368.439C75.1733 368.013 74.48 367.799 73.68 367.799C72.3467 367.799 71.3333 368.226 70.64 369.079C69.9467 369.933 69.6 370.973 69.6 372.199V386.279C69.6 387.506 69.9467 388.546 70.64 389.399C71.3867 390.199 72.3733 390.599 73.6 390.599C74.8267 390.599 75.8133 390.199 76.56 389.399C77.36 388.546 77.76 387.506 77.76 386.279ZM47.04 379.479C47.04 377.186 46.5067 375.426 45.44 374.199C44.3733 372.919 42.8267 372.279 40.8 372.279C38.72 372.279 37.1733 372.919 36.16 374.199C35.0933 375.426 34.56 377.186 34.56 379.479C34.56 381.666 35.0933 383.399 36.16 384.679C37.1733 385.959 38.72 386.599 40.8 386.599C42.1333 386.599 43.28 386.333 44.24 385.799C45.1467 385.266 45.84 384.466 46.32 383.399C46.8 382.333 47.04 381.026 47.04 379.479ZM70 348.852H27.84L27.84 338.052L33.84 337.092V336.532C32.4 335.466 31.1467 334.239 30.08 332.852C29.0133 331.466 28.2133 329.892 27.68 328.132C27.1467 326.372 26.88 324.506 26.88 322.532C26.88 319.492 27.44 316.932 28.56 314.852C29.68 312.719 31.36 311.092 33.6 309.972C35.84 308.852 38.6933 308.292 42.16 308.292H70L70 321.412H44C42.8267 321.412 41.84 321.572 41.04 321.892C40.1867 322.159 39.4667 322.559 38.88 323.092C38.2933 323.626 37.8667 324.292 37.6 325.092C37.3333 325.892 37.2 326.799 37.2 327.812C37.2 329.359 37.5733 330.719 38.32 331.892C39.0133 333.066 39.9733 333.999 41.2 334.692C42.3733 335.386 43.76 335.732 45.36 335.732H70V348.852ZM70.96 277.9C70.96 282.7 70.1867 286.78 68.64 290.14C67.04 293.5 64.6133 296.087 61.36 297.9C58.1067 299.66 53.9467 300.54 48.88 300.54C43.92 300.54 39.8133 299.66 36.56 297.9C33.3067 296.14 30.88 293.607 29.28 290.3C27.68 286.993 26.88 283.02 26.88 278.38C26.88 273.793 27.6533 269.927 29.2 266.78C30.7467 263.58 33.12 261.153 36.32 259.5C39.52 257.847 43.6533 257.02 48.72 257.02H51.52L51.52 287.26C53.76 287.26 55.6533 286.94 57.2 286.3C58.7467 285.66 59.92 284.673 60.72 283.34C61.52 282.007 61.92 280.22 61.92 277.98C61.92 276.647 61.76 275.473 61.44 274.46C61.12 273.447 60.6667 272.593 60.08 271.9C59.44 271.207 58.6933 270.673 57.84 270.3C56.9867 269.927 56.0267 269.74 54.96 269.74V257.02C57.52 257.02 59.8133 257.5 61.84 258.46C63.8133 259.367 65.4933 260.727 66.88 262.54C68.2133 264.353 69.2267 266.567 69.92 269.18C70.6133 271.74 70.96 274.647 70.96 277.9ZM44.24 287.18L44.24 270.38C42.8533 270.38 41.6533 270.567 40.64 270.94C39.5733 271.26 38.6933 271.767 38 272.46C37.3067 273.1 36.8 273.9 36.48 274.86C36.1067 275.767 35.92 276.833 35.92 278.06C35.92 279.98 36.24 281.58 36.88 282.86C37.52 284.14 38.4533 285.127 39.68 285.82C40.9067 286.513 42.4267 286.967 44.24 287.18ZM70 249.009H27.84V238.209L34.32 237.249V236.689C32.88 236.049 31.6 235.275 30.48 234.369C29.3067 233.409 28.4 232.262 27.76 230.929C27.12 229.542 26.8 228.022 26.8 226.369C26.8 225.409 26.9067 224.529 27.12 223.729C27.28 222.929 27.4667 222.342 27.68 221.969H39.12V226.129C39.12 227.782 39.36 229.249 39.84 230.529C40.2667 231.755 40.96 232.769 41.92 233.569C42.8267 234.369 43.9467 234.955 45.28 235.329C46.6133 235.702 48.16 235.889 49.92 235.889H70V249.009Z" fill="#5F5E66"/>
<path d="M135 562.35L100 577.85V573.85L132.95 559.35V561.55L100 546.95V543.2L135 558.7V562.35ZM135 539.017H108.75V535.467H135V539.017ZM102.95 537.217C102.95 537.95 102.7 538.567 102.2 539.067C101.7 539.567 101.1 539.817 100.4 539.817C99.7 539.817 99.1167 539.567 98.65 539.067C98.15 538.567 97.9 537.95 97.9 537.217C97.9 536.483 98.1333 535.867 98.6 535.367C99.0667 534.867 99.65 534.617 100.35 534.617C101.083 534.617 101.7 534.867 102.2 535.367C102.7 535.833 102.95 536.45 102.95 537.217ZM135.25 518.539C135.25 520.706 134.95 522.756 134.35 524.689C133.717 526.622 132.933 528.139 132 529.239L129.2 527.639C130 526.572 130.7 525.206 131.3 523.539C131.867 521.872 132.15 520.122 132.15 518.289C132.15 515.789 131.767 513.989 131 512.889C130.2 511.789 129.15 511.239 127.85 511.239C126.883 511.239 126.133 511.556 125.6 512.189C125.033 512.789 124.617 513.589 124.35 514.589C124.05 515.589 123.8 516.706 123.6 517.939C123.4 519.172 123.167 520.406 122.9 521.639C122.633 522.839 122.25 523.939 121.75 524.939C121.217 525.939 120.5 526.756 119.6 527.389C118.7 527.989 117.5 528.289 116 528.289C114.567 528.289 113.283 527.889 112.15 527.089C111.017 526.289 110.133 525.122 109.5 523.589C108.833 522.022 108.5 520.122 108.5 517.889C108.5 516.189 108.733 514.489 109.2 512.789C109.633 511.089 110.217 509.689 110.95 508.589L113.8 510.139C113 511.306 112.433 512.556 112.1 513.889C111.733 515.222 111.55 516.556 111.55 517.889C111.55 520.256 111.967 522.006 112.8 523.139C113.6 524.239 114.633 524.789 115.9 524.789C116.9 524.789 117.683 524.489 118.25 523.889C118.817 523.256 119.267 522.439 119.6 521.439C119.9 520.406 120.15 519.289 120.35 518.089C120.55 516.856 120.8 515.639 121.1 514.439C121.367 513.206 121.75 512.089 122.25 511.089C122.717 510.056 123.4 509.239 124.3 508.639C125.167 508.006 126.317 507.689 127.75 507.689C129.283 507.689 130.617 508.122 131.75 508.989C132.85 509.822 133.717 511.056 134.35 512.689C134.95 514.289 135.25 516.239 135.25 518.539ZM135.25 490.325C135.25 492.558 134.833 494.508 134 496.175C133.167 497.842 131.917 499.142 130.25 500.075C128.583 500.975 126.5 501.425 124 501.425H108.75V497.875H123.6C126.4 497.875 128.517 497.192 129.95 495.825C131.35 494.425 132.05 492.475 132.05 489.975C132.05 488.142 131.683 486.558 130.95 485.225C130.183 483.858 129.083 482.825 127.65 482.125C126.217 481.392 124.5 481.025 122.5 481.025H108.75V477.475H135V480.875H127.8L129.1 480.325C131.033 481.158 132.55 482.458 133.65 484.225C134.717 485.958 135.25 487.992 135.25 490.325ZM135 451.131H129.2L128.25 451.281H118.55C116.317 451.281 114.6 451.915 113.4 453.181C112.2 454.415 111.6 456.265 111.6 458.731C111.6 460.431 111.883 462.048 112.45 463.581C113.017 465.115 113.767 466.415 114.7 467.481L112.05 469.081C110.917 467.748 110.05 466.148 109.45 464.281C108.817 462.415 108.5 460.448 108.5 458.381C108.5 454.981 109.35 452.365 111.05 450.531C112.717 448.665 115.267 447.731 118.7 447.731H135V451.131ZM135.25 460.181C135.25 462.148 134.933 463.865 134.3 465.331C133.633 466.765 132.733 467.865 131.6 468.631C130.433 469.398 129.1 469.781 127.6 469.781C126.233 469.781 125 469.465 123.9 468.831C122.767 468.165 121.867 467.098 121.2 465.631C120.5 464.131 120.15 462.131 120.15 459.631V450.581H122.8V459.531C122.8 462.065 123.25 463.831 124.15 464.831C125.05 465.798 126.167 466.281 127.5 466.281C129 466.281 130.2 465.698 131.1 464.531C132 463.365 132.45 461.731 132.45 459.631C132.45 457.631 132 455.915 131.1 454.481C130.167 453.015 128.833 451.948 127.1 451.281L129.55 450.481C131.283 451.148 132.667 452.315 133.7 453.981C134.733 455.615 135.25 457.681 135.25 460.181ZM135 438.089H97.9V434.539H135V438.089ZM135.25 400.675C135.25 403.275 134.683 405.609 133.55 407.675C132.383 409.709 130.8 411.309 128.8 412.475C126.767 413.642 124.45 414.225 121.85 414.225C119.217 414.225 116.9 413.642 114.9 412.475C112.9 411.309 111.333 409.709 110.2 407.675C109.067 405.609 108.5 403.275 108.5 400.675C108.5 398.442 108.933 396.425 109.8 394.625C110.667 392.825 111.967 391.409 113.7 390.375L115.5 393.025C114.167 393.925 113.183 395.042 112.55 396.375C111.917 397.709 111.6 399.159 111.6 400.725C111.6 402.592 112.033 404.275 112.9 405.775C113.733 407.275 114.917 408.459 116.45 409.325C117.983 410.192 119.783 410.625 121.85 410.625C123.917 410.625 125.717 410.192 127.25 409.325C128.783 408.459 129.983 407.275 130.85 405.775C131.683 404.275 132.1 402.592 132.1 400.725C132.1 399.159 131.783 397.709 131.15 396.375C130.517 395.042 129.55 393.925 128.25 393.025L130.05 390.375C131.75 391.409 133.05 392.825 133.95 394.625C134.817 396.425 135.25 398.442 135.25 400.675ZM135.25 373.141C135.25 375.674 134.683 377.958 133.55 379.991C132.383 381.991 130.8 383.574 128.8 384.741C126.767 385.908 124.45 386.491 121.85 386.491C119.217 386.491 116.9 385.908 114.9 384.741C112.9 383.574 111.333 381.991 110.2 379.991C109.067 377.991 108.5 375.708 108.5 373.141C108.5 370.541 109.067 368.241 110.2 366.241C111.333 364.208 112.9 362.624 114.9 361.491C116.9 360.324 119.217 359.741 121.85 359.741C124.45 359.741 126.767 360.324 128.8 361.491C130.8 362.624 132.383 364.208 133.55 366.241C134.683 368.274 135.25 370.574 135.25 373.141ZM132.1 373.141C132.1 371.241 131.683 369.558 130.85 368.091C129.983 366.624 128.783 365.474 127.25 364.641C125.683 363.774 123.883 363.341 121.85 363.341C119.783 363.341 117.983 363.774 116.45 364.641C114.917 365.474 113.733 366.624 112.9 368.091C112.033 369.558 111.6 371.224 111.6 373.091C111.6 374.958 112.033 376.624 112.9 378.091C113.733 379.558 114.917 380.724 116.45 381.591C117.983 382.458 119.783 382.891 121.85 382.891C123.883 382.891 125.683 382.458 127.25 381.591C128.783 380.724 129.983 379.558 130.85 378.091C131.683 376.624 132.1 374.974 132.1 373.141ZM135.25 342.043C135.25 344.543 134.683 346.793 133.55 348.793C132.417 350.76 130.85 352.31 128.85 353.443C126.817 354.577 124.483 355.143 121.85 355.143C119.183 355.143 116.85 354.577 114.85 353.443C112.85 352.31 111.3 350.76 110.2 348.793C109.067 346.793 108.5 344.543 108.5 342.043C108.5 339.743 109.017 337.693 110.05 335.893C111.083 334.06 112.6 332.61 114.6 331.543C116.567 330.443 118.983 329.893 121.85 329.893C124.683 329.893 127.1 330.427 129.1 331.493C131.1 332.56 132.633 334.01 133.7 335.843C134.733 337.643 135.25 339.71 135.25 342.043ZM132.1 341.793C132.1 339.927 131.683 338.26 130.85 336.793C129.983 335.293 128.783 334.127 127.25 333.293C125.683 332.427 123.883 331.993 121.85 331.993C119.783 331.993 117.983 332.427 116.45 333.293C114.917 334.127 113.733 335.293 112.9 336.793C112.033 338.26 111.6 339.927 111.6 341.793C111.6 343.627 112.033 345.277 112.9 346.743C113.733 348.21 114.917 349.377 116.45 350.243C117.983 351.11 119.783 351.543 121.85 351.543C123.883 351.543 125.683 351.11 127.25 350.243C128.783 349.377 129.983 348.21 130.85 346.743C131.683 345.277 132.1 343.627 132.1 341.793ZM135 331.893H127.1L121.8 331.543L116.5 332.043H97.9V328.493H135V331.893ZM135.25 307.457C135.25 310.19 134.683 312.59 133.55 314.657C132.383 316.723 130.8 318.34 128.8 319.507C126.767 320.673 124.45 321.257 121.85 321.257C119.25 321.257 116.95 320.707 114.95 319.607C112.95 318.473 111.383 316.94 110.25 315.007C109.083 313.04 108.5 310.84 108.5 308.407C108.5 305.94 109.067 303.757 110.2 301.857C111.3 299.923 112.867 298.407 114.9 297.307C116.9 296.207 119.217 295.657 121.85 295.657C122.017 295.657 122.2 295.673 122.4 295.707C122.567 295.707 122.75 295.707 122.95 295.707V318.557H120.3V297.607L121.35 299.007C119.45 299.007 117.767 299.423 116.3 300.257C114.8 301.057 113.633 302.157 112.8 303.557C111.967 304.957 111.55 306.573 111.55 308.407C111.55 310.207 111.967 311.823 112.8 313.257C113.633 314.69 114.8 315.807 116.3 316.607C117.8 317.407 119.517 317.807 121.45 317.807H122C124 317.807 125.767 317.373 127.3 316.507C128.8 315.607 129.983 314.373 130.85 312.807C131.683 311.207 132.1 309.39 132.1 307.357C132.1 305.757 131.817 304.273 131.25 302.907C130.683 301.507 129.817 300.307 128.65 299.307L130.95 297.307C132.35 298.473 133.417 299.94 134.15 301.707C134.883 303.44 135.25 305.357 135.25 307.457ZM135 258.895H129.2L128.25 259.045H118.55C116.317 259.045 114.6 259.678 113.4 260.945C112.2 262.178 111.6 264.028 111.6 266.495C111.6 268.195 111.883 269.812 112.45 271.345C113.017 272.878 113.767 274.178 114.7 275.245L112.05 276.845C110.917 275.512 110.05 273.912 109.45 272.045C108.817 270.178 108.5 268.212 108.5 266.145C108.5 262.745 109.35 260.128 111.05 258.295C112.717 256.428 115.267 255.495 118.7 255.495H135V258.895ZM135.25 267.945C135.25 269.912 134.933 271.628 134.3 273.095C133.633 274.528 132.733 275.628 131.6 276.395C130.433 277.162 129.1 277.545 127.6 277.545C126.233 277.545 125 277.228 123.9 276.595C122.767 275.928 121.867 274.862 121.2 273.395C120.5 271.895 120.15 269.895 120.15 267.395V258.345H122.8V267.295C122.8 269.828 123.25 271.595 124.15 272.595C125.05 273.562 126.167 274.045 127.5 274.045C129 274.045 130.2 273.462 131.1 272.295C132 271.128 132.45 269.495 132.45 267.395C132.45 265.395 132 263.678 131.1 262.245C130.167 260.778 128.833 259.712 127.1 259.045L129.55 258.245C131.283 258.912 132.667 260.078 133.7 261.745C134.733 263.378 135.25 265.445 135.25 267.945ZM108.5 232.453C108.5 230.319 108.917 228.453 109.75 226.853C110.55 225.219 111.783 223.953 113.45 223.053C115.117 222.119 117.217 221.653 119.75 221.653H135V225.203H120.1C117.333 225.203 115.25 225.903 113.85 227.303C112.417 228.669 111.7 230.603 111.7 233.103C111.7 234.969 112.083 236.603 112.85 238.003C113.583 239.369 114.667 240.436 116.1 241.203C117.5 241.936 119.2 242.303 121.2 242.303H135V245.853H108.75V242.453H115.95L114.6 243.003C112.7 242.169 111.217 240.836 110.15 239.003C109.05 237.169 108.5 234.986 108.5 232.453ZM135.25 201.614C135.25 204.114 134.683 206.364 133.55 208.364C132.417 210.33 130.85 211.88 128.85 213.014C126.817 214.147 124.483 214.714 121.85 214.714C119.183 214.714 116.85 214.147 114.85 213.014C112.85 211.88 111.3 210.33 110.2 208.364C109.067 206.364 108.5 204.114 108.5 201.614C108.5 199.314 109.017 197.264 110.05 195.464C111.083 193.63 112.6 192.18 114.6 191.114C116.567 190.014 118.983 189.464 121.85 189.464C124.683 189.464 127.1 189.997 129.1 191.064C131.1 192.13 132.633 193.58 133.7 195.414C134.733 197.214 135.25 199.28 135.25 201.614ZM132.1 201.364C132.1 199.497 131.683 197.83 130.85 196.364C129.983 194.864 128.783 193.697 127.25 192.864C125.683 191.997 123.883 191.564 121.85 191.564C119.783 191.564 117.983 191.997 116.45 192.864C114.917 193.697 113.733 194.864 112.9 196.364C112.033 197.83 111.6 199.497 111.6 201.364C111.6 203.197 112.033 204.847 112.9 206.314C113.733 207.78 114.917 208.947 116.45 209.814C117.983 210.68 119.783 211.114 121.85 211.114C123.883 211.114 125.683 210.68 127.25 209.814C128.783 208.947 129.983 207.78 130.85 206.314C131.683 204.847 132.1 203.197 132.1 201.364ZM135 191.464H127.1L121.8 191.114L116.5 191.614H97.9V188.064H135V191.464ZM135.25 154.641C135.25 157.141 134.683 159.391 133.55 161.391C132.417 163.358 130.85 164.908 128.85 166.041C126.817 167.174 124.483 167.741 121.85 167.741C119.183 167.741 116.85 167.174 114.85 166.041C112.85 164.908 111.3 163.358 110.2 161.391C109.067 159.391 108.5 157.141 108.5 154.641C108.5 152.341 109.017 150.291 110.05 148.491C111.083 146.658 112.6 145.208 114.6 144.141C116.567 143.041 118.983 142.491 121.85 142.491C124.683 142.491 127.1 143.024 129.1 144.091C131.1 145.158 132.633 146.608 133.7 148.441C134.733 150.241 135.25 152.308 135.25 154.641ZM132.1 154.391C132.1 152.524 131.683 150.858 130.85 149.391C129.983 147.891 128.783 146.724 127.25 145.891C125.683 145.024 123.883 144.591 121.85 144.591C119.783 144.591 117.983 145.024 116.45 145.891C114.917 146.724 113.733 147.891 112.9 149.391C112.033 150.858 111.6 152.524 111.6 154.391C111.6 156.224 112.033 157.874 112.9 159.341C113.733 160.808 114.917 161.974 116.45 162.841C117.983 163.708 119.783 164.141 121.85 164.141C123.883 164.141 125.683 163.708 127.25 162.841C128.783 161.974 129.983 160.808 130.85 159.341C131.683 157.874 132.1 156.224 132.1 154.391ZM135 144.491H127.1L121.8 144.141L116.5 144.641H97.9V141.091H135V144.491ZM135.25 120.054C135.25 122.788 134.683 125.188 133.55 127.254C132.383 129.321 130.8 130.938 128.8 132.104C126.767 133.271 124.45 133.854 121.85 133.854C119.25 133.854 116.95 133.304 114.95 132.204C112.95 131.071 111.383 129.538 110.25 127.604C109.083 125.638 108.5 123.438 108.5 121.004C108.5 118.538 109.067 116.354 110.2 114.454C111.3 112.521 112.867 111.004 114.9 109.904C116.9 108.804 119.217 108.254 121.85 108.254C122.017 108.254 122.2 108.271 122.4 108.304C122.567 108.304 122.75 108.304 122.95 108.304V131.154H120.3V110.204L121.35 111.604C119.45 111.604 117.767 112.021 116.3 112.854C114.8 113.654 113.633 114.754 112.8 116.154C111.967 117.554 111.55 119.171 111.55 121.004C111.55 122.804 111.967 124.421 112.8 125.854C113.633 127.288 114.8 128.404 116.3 129.204C117.8 130.004 119.517 130.404 121.45 130.404H122C124 130.404 125.767 129.971 127.3 129.104C128.8 128.204 129.983 126.971 130.85 125.404C131.683 123.804 132.1 121.988 132.1 119.954C132.1 118.354 131.817 116.871 131.25 115.504C130.683 114.104 129.817 112.904 128.65 111.904L130.95 109.904C132.35 111.071 133.417 112.538 134.15 114.304C134.883 116.038 135.25 117.954 135.25 120.054ZM135.25 93.9785C135.25 96.1452 134.95 98.1952 134.35 100.129C133.717 102.062 132.933 103.579 132 104.679L129.2 103.079C130 102.012 130.7 100.645 131.3 98.9785C131.867 97.3118 132.15 95.5618 132.15 93.7285C132.15 91.2285 131.767 89.4285 131 88.3285C130.2 87.2285 129.15 86.6785 127.85 86.6785C126.883 86.6785 126.133 86.9952 125.6 87.6285C125.033 88.2285 124.617 89.0285 124.35 90.0285C124.05 91.0285 123.8 92.1452 123.6 93.3785C123.4 94.6118 123.167 95.8452 122.9 97.0785C122.633 98.2785 122.25 99.3785 121.75 100.379C121.217 101.379 120.5 102.195 119.6 102.829C118.7 103.429 117.5 103.729 116 103.729C114.567 103.729 113.283 103.329 112.15 102.529C111.017 101.729 110.133 100.562 109.5 99.0285C108.833 97.4618 108.5 95.5618 108.5 93.3285C108.5 91.6285 108.733 89.9285 109.2 88.2285C109.633 86.5285 110.217 85.1285 110.95 84.0285L113.8 85.5785C113 86.7452 112.433 87.9952 112.1 89.3285C111.733 90.6618 111.55 91.9952 111.55 93.3285C111.55 95.6952 111.967 97.4452 112.8 98.5785C113.6 99.6785 114.633 100.229 115.9 100.229C116.9 100.229 117.683 99.9285 118.25 99.3285C118.817 98.6952 119.267 97.8785 119.6 96.8785C119.9 95.8452 120.15 94.7285 120.35 93.5285C120.55 92.2952 120.8 91.0785 121.1 89.8785C121.367 88.6452 121.75 87.5285 122.25 86.5285C122.717 85.4952 123.4 84.6785 124.3 84.0785C125.167 83.4452 126.317 83.1285 127.75 83.1285C129.283 83.1285 130.617 83.5618 131.75 84.4285C132.85 85.2618 133.717 86.4952 134.35 88.1285C134.95 89.7285 135.25 91.6785 135.25 93.9785ZM135 76.6145H108.75V73.0645H135V76.6145ZM102.95 74.8145C102.95 75.5478 102.7 76.1645 102.2 76.6645C101.7 77.1645 101.1 77.4145 100.4 77.4145C99.7 77.4145 99.1167 77.1645 98.65 76.6645C98.15 76.1645 97.9 75.5478 97.9 74.8145C97.9 74.0811 98.1333 73.4645 98.6 72.9645C99.0667 72.4645 99.65 72.2145 100.35 72.2145C101.083 72.2145 101.7 72.4645 102.2 72.9645C102.7 73.4311 102.95 74.0478 102.95 74.8145ZM144.95 51.9867C144.95 54.3867 144.6 56.6867 143.9 58.8867C143.2 61.0867 142.2 62.8701 140.9 64.2367L138.2 62.4367C139.3 61.2034 140.167 59.6867 140.8 57.8867C141.467 56.0534 141.8 54.1201 141.8 52.0867C141.8 48.7534 141.017 46.3034 139.45 44.7367C137.917 43.1701 135.517 42.3867 132.25 42.3867H125.7L121.2 41.8867L116.7 42.2367H108.75V38.8367H131.8C136.333 38.8367 139.65 39.9534 141.75 42.1867C143.883 44.3867 144.95 47.6534 144.95 51.9867ZM134 52.6367C134 55.1367 133.467 57.3867 132.4 59.3867C131.3 61.3867 129.783 62.9701 127.85 64.1367C125.917 65.2701 123.7 65.8367 121.2 65.8367C118.7 65.8367 116.5 65.2701 114.6 64.1367C112.667 62.9701 111.167 61.3867 110.1 59.3867C109.033 57.3867 108.5 55.1367 108.5 52.6367C108.5 50.3034 108.983 48.2034 109.95 46.3367C110.917 44.4701 112.35 42.9867 114.25 41.8867C116.15 40.7867 118.467 40.2367 121.2 40.2367C123.933 40.2367 126.25 40.7867 128.15 41.8867C130.05 42.9867 131.5 44.4701 132.5 46.3367C133.5 48.2034 134 50.3034 134 52.6367ZM130.85 52.2867C130.85 50.3534 130.45 48.6367 129.65 47.1367C128.817 45.6367 127.683 44.4534 126.25 43.5867C124.783 42.7201 123.1 42.2867 121.2 42.2867C119.3 42.2867 117.633 42.7201 116.2 43.5867C114.767 44.4534 113.65 45.6367 112.85 47.1367C112.017 48.6367 111.6 50.3534 111.6 52.2867C111.6 54.1867 112.017 55.9034 112.85 57.4367C113.65 58.9367 114.767 60.1201 116.2 60.9867C117.633 61.8201 119.3 62.2367 121.2 62.2367C123.1 62.2367 124.783 61.8201 126.25 60.9867C127.683 60.1201 128.817 58.9367 129.65 57.4367C130.45 55.9034 130.85 54.1867 130.85 52.2867ZM108.5 15.5582C108.5 13.4249 108.917 11.5582 109.75 9.9582C110.55 8.32487 111.783 7.0582 113.45 6.1582C115.117 5.22487 117.217 4.7582 119.75 4.7582H135V8.3082H120.1C117.333 8.3082 115.25 9.0082 113.85 10.4082C112.417 11.7749 111.7 13.7082 111.7 16.2082C111.7 18.0749 112.083 19.7082 112.85 21.1082C113.583 22.4749 114.667 23.5415 116.1 24.3082C117.5 25.0415 119.2 25.4082 121.2 25.4082H135V28.9582H108.75V25.5582H115.95L114.6 26.1082C112.7 25.2749 111.217 23.9415 110.15 22.1082C109.05 20.2749 108.5 18.0915 108.5 15.5582Z" fill="#5F5E66"/>
<path d="M495.5 232H495C329.315 232 195 366.315 195 532C195 697.685 329.315 832 495 832H495.5C661.185 832 795.5 697.685 795.5 532C795.5 366.315 661.185 232 495.5 232Z" fill="#EFEBE0" stroke="#F25C05" stroke-width="3" stroke-miterlimit="10"/>
<path d="M362.47 603.41V462.25H379.81L429.4 565.3H420.32L469.1 462.25H486.44L486.6 603.41H466.67L466.51 501.17H470.72L429.23 587.28H419.83L377.69 501.17H382.55V603.41H362.45H362.47Z" fill="#5F5E66"/>
<path d="M521.18 461H580.73C598.92 461 613.23 464.02 623.65 470.06C634.07 476.1 639.28 485.61 639.28 498.6C639.28 506.39 636.76 512.72 631.71 517.6C626.66 522.47 620.42 525.95 612.98 528.02V528.41C622.08 530.49 629.52 534.32 635.31 539.9C641.1 545.49 643.99 552.82 643.99 561.92C643.99 574.91 638.55 584.97 627.68 592.12C616.8 599.26 602.39 602.84 584.45 602.84H521.18V461.01V461ZM580.73 521.4C593.14 521.4 602.07 519.39 607.53 515.36C612.99 511.33 615.72 505.75 615.72 498.61C615.72 491.47 612.99 485.98 607.53 482.15C602.07 478.32 593.14 476.4 580.73 476.4H544.51V521.4H580.73ZM584.45 587.45C596.86 587.45 605.95 585.15 611.74 580.53C617.53 575.92 620.42 569.72 620.42 561.92C620.42 554.13 617.52 547.96 611.74 543.41C605.95 538.86 596.85 536.59 584.45 536.59H544.5V587.44H584.45V587.45Z" fill="#5F5E66"/>
<path d="M711.71 620.27C712.04 620.27 712.28 620.44 712.41 620.77C712.54 621.1 712.51 621.4 712.31 621.67C709.11 624.47 706.23 627.82 703.66 631.72C701.09 635.62 698.88 639.74 697.01 644.07C695.14 648.4 693.71 652.82 692.71 657.32C691.71 661.82 691.21 666.04 691.21 669.97C691.21 673.57 691.64 676.39 692.51 678.42C693.38 680.45 694.58 681.47 696.11 681.47C698.64 681.47 701.14 679.6 703.61 675.87C703.81 675.67 704.03 675.65 704.26 675.82C704.49 675.99 704.58 676.2 704.51 676.47C703.78 677.6 702.96 678.72 702.06 679.82C701.16 680.92 700.21 681.92 699.21 682.82C698.21 683.72 697.23 684.45 696.26 685.02C695.29 685.59 694.41 685.87 693.61 685.87C691.88 685.87 690.34 684.85 689.01 682.82C687.68 680.79 687.01 677.67 687.01 673.47C687.01 670.01 687.36 666.27 688.06 662.27C688.76 658.27 689.81 654.25 691.21 650.22C692.61 646.19 694.36 642.27 696.46 638.47C698.56 634.67 700.98 631.2 703.71 628.07C699.58 631.14 695.36 634.82 691.06 639.12C686.76 643.42 682.63 648.02 678.66 652.92C674.69 657.82 671.01 662.85 667.61 668.02C664.21 673.19 661.38 678.17 659.11 682.97C658.84 683.44 658.34 684.04 657.61 684.77C656.88 685.5 656.31 685.87 655.91 685.87C655.44 685.87 655.21 685.64 655.21 685.17C656.48 674.84 658.29 665.65 660.66 657.62C663.03 649.59 665.84 642.17 669.11 635.37C663.78 643.37 658.54 650.5 653.41 656.77C648.28 663.04 643.14 668.32 638.01 672.62C632.88 676.92 627.64 680.2 622.31 682.47C616.98 684.74 611.44 685.87 605.71 685.87C602.98 685.87 600.54 685.44 598.41 684.57C596.28 683.7 594.44 682.5 592.91 680.97C591.38 679.44 590.21 677.64 589.41 675.57C588.61 673.5 588.21 671.24 588.21 668.77C588.21 665.57 588.96 662.64 590.46 659.97C591.96 657.3 594.18 655.2 597.11 653.67C597.38 653.54 597.56 653.6 597.66 653.87C597.76 654.14 597.74 654.4 597.61 654.67C595.54 656 594.09 657.54 593.26 659.27C592.43 661 592.01 663.27 592.01 666.07C592.01 668.27 592.38 670.35 593.11 672.32C593.84 674.29 594.93 676 596.36 677.47C597.79 678.94 599.56 680.1 601.66 680.97C603.76 681.84 606.21 682.27 609.01 682.27C614.88 682.27 620.49 680.92 625.86 678.22C631.23 675.52 636.44 671.8 641.51 667.07C646.58 662.34 651.54 656.8 656.41 650.47C661.28 644.14 666.14 637.3 671.01 629.97C666.34 628.37 661.46 627.02 656.36 625.92C651.26 624.82 646.38 624.27 641.71 624.27C636.71 624.27 632.54 625.72 629.21 628.62C625.88 631.52 623.84 635.94 623.11 641.87C622.98 642.2 622.79 642.34 622.56 642.27C622.33 642.2 622.18 642 622.11 641.67C622.84 635.14 625.24 630.14 629.31 626.67C633.38 623.2 638.68 621.47 645.21 621.47C647.94 621.47 650.71 621.65 653.51 622.02C656.31 622.39 659.04 622.85 661.71 623.42C664.38 623.99 666.93 624.62 669.36 625.32C671.79 626.02 674.01 626.7 676.01 627.37C676.14 627.3 676.29 627.27 676.46 627.27C676.63 627.27 676.78 627.24 676.91 627.17C677.18 627.17 677.33 627.3 677.36 627.57C677.39 627.84 677.34 628.07 677.21 628.27C676.28 628.87 675.51 629.6 674.91 630.47C674.31 631.34 673.64 632.47 672.91 633.87C669.58 640.54 666.93 647.52 664.96 654.82C662.99 662.12 661.34 669.5 660.01 676.97C663.14 671.44 666.74 665.9 670.81 660.37C674.88 654.84 679.18 649.57 683.71 644.57C688.24 639.57 692.91 634.99 697.71 630.82C702.51 626.65 707.18 623.14 711.71 620.27Z" fill="#5F5E66"/>
<path d="M710.21 667.27C710.01 667.4 709.83 667.35 709.66 667.12C709.49 666.89 709.48 666.67 709.61 666.47C710.54 665.54 711.81 664.47 713.41 663.27C715.01 662.07 716.61 661.07 718.21 660.27C718.74 660.27 719.01 660.57 719.01 661.17C718.14 662.7 717.29 664.37 716.46 666.17C715.63 667.97 714.89 669.75 714.26 671.52C713.63 673.29 713.11 674.99 712.71 676.62C712.31 678.25 712.11 679.6 712.11 680.67C712.11 682.07 712.58 682.77 713.51 682.77C714.24 682.77 714.96 682.45 715.66 681.82C716.36 681.19 717.18 680.34 718.11 679.27C718.24 679.14 718.41 679.17 718.61 679.37C718.81 679.57 718.84 679.8 718.71 680.07C717.51 681.54 716.23 682.87 714.86 684.07C713.49 685.27 712.21 685.87 711.01 685.87C709.28 685.87 708.41 684.77 708.41 682.57C708.41 681.3 708.62 679.79 709.06 678.02C709.49 676.25 710.04 674.47 710.71 672.67C711.38 670.87 712.13 669.14 712.96 667.47C713.79 665.8 714.61 664.37 715.41 663.17C714.68 663.7 713.76 664.39 712.66 665.22C711.56 666.05 710.74 666.74 710.21 667.27ZM719.21 655.97C719.01 656.17 718.83 656.19 718.66 656.02C718.49 655.85 718.37 655.62 718.31 655.32C718.24 655.02 718.21 654.67 718.21 654.27C718.21 653.87 718.31 653.54 718.51 653.27C720.24 650.87 722.68 648.3 725.81 645.57C726.01 645.5 726.21 645.55 726.41 645.72C726.61 645.89 726.64 646.04 726.51 646.17C725.11 647.44 723.78 648.95 722.51 650.72C721.24 652.49 720.14 654.24 719.21 655.97Z" fill="#5F5E66"/>
<path d="M746.91 679.57C747.04 679.44 747.21 679.44 747.41 679.57C747.61 679.7 747.68 679.9 747.61 680.17C746.21 682.1 744.83 683.54 743.46 684.47C742.09 685.4 740.94 685.87 740.01 685.87C739.41 685.87 738.93 685.57 738.56 684.97C738.19 684.37 737.96 683.55 737.86 682.52C737.76 681.49 737.79 680.32 737.96 679.02C738.13 677.72 738.41 676.37 738.81 674.97C737.01 677.77 735.11 680.19 733.11 682.22C731.11 684.26 729.18 685.47 727.31 685.87C726.11 685.87 725.09 685.29 724.26 684.12C723.43 682.95 723.01 681.14 723.01 678.67C723.01 676.47 723.46 674.29 724.36 672.12C725.26 669.95 726.48 667.99 728.01 666.22C729.54 664.45 731.31 663.04 733.31 661.97C735.31 660.9 737.41 660.37 739.61 660.37C740.81 660.37 741.84 660.5 742.71 660.77C743.58 661.04 744.38 661.44 745.11 661.97C745.51 661.64 746.06 661.32 746.76 661.02C747.46 660.72 748.11 660.57 748.71 660.57C749.04 660.57 749.14 660.74 749.01 661.07C747.48 662.94 746.16 665 745.06 667.27C743.96 669.54 743.11 671.74 742.51 673.87C741.91 676 741.53 677.89 741.36 679.52C741.19 681.15 741.31 682.27 741.71 682.87C742.04 683.34 742.64 683.35 743.51 682.92C744.38 682.49 745.51 681.37 746.91 679.57ZM729.51 682.47C730.24 682.47 731.19 681.95 732.36 680.92C733.53 679.89 734.74 678.54 736.01 676.87C737.28 675.2 738.53 673.32 739.76 671.22C740.99 669.12 742.08 667.01 743.01 664.87C742.74 664 742.13 663.3 741.16 662.77C740.19 662.24 739.08 661.97 737.81 661.97C736.34 661.97 734.96 662.35 733.66 663.12C732.36 663.89 731.21 664.95 730.21 666.32C729.21 667.69 728.41 669.3 727.81 671.17C727.21 673.04 726.91 675.1 726.91 677.37C726.91 678.84 727.16 680.05 727.66 681.02C728.16 681.99 728.78 682.47 729.51 682.47Z" fill="#5F5E66"/>
<path d="M816.21 649.47C820.01 651.2 822.78 653.6 824.51 656.67C826.24 659.74 827.11 662.9 827.11 666.17C827.11 672.24 824.96 677.04 820.66 680.57C816.36 684.1 809.94 685.87 801.41 685.87C794.54 685.87 788.33 684.74 782.76 682.47C777.19 680.2 772.08 677.1 767.41 673.17C767.21 672.9 767.28 672.62 767.61 672.32C767.94 672.02 768.36 671.75 768.86 671.52C769.36 671.29 769.91 671.12 770.51 671.02C771.11 670.92 771.61 670.97 772.01 671.17C773.28 672.5 774.56 673.35 775.86 673.72C777.16 674.09 778.71 674.1 780.51 673.77C782.24 673.44 783.79 672.77 785.16 671.77C786.53 670.77 787.83 669.24 789.06 667.17C790.29 665.1 791.53 662.4 792.76 659.07C793.99 655.74 795.31 651.54 796.71 646.47C798.11 641.54 799.79 637.2 801.76 633.47C803.73 629.74 806.11 626.6 808.91 624.07C808.31 623.94 807.71 623.87 807.11 623.87H805.11C802.91 623.87 800.73 624.19 798.56 624.82C796.39 625.45 794.34 626.37 792.41 627.57C790.48 628.77 788.74 630.24 787.21 631.97C785.67 633.7 784.41 635.67 783.41 637.87C783.28 638 783.13 638.02 782.96 637.92C782.79 637.82 782.74 637.64 782.81 637.37C783.61 635.3 784.83 633.3 786.46 631.37C788.09 629.44 790.04 627.74 792.31 626.27C794.58 624.8 797.13 623.64 799.96 622.77C802.79 621.9 805.84 621.47 809.11 621.47H810.66C811.16 621.47 811.68 621.51 812.21 621.57C814.61 619.9 817.48 618.67 820.81 617.87C821.14 617.87 821.31 617.97 821.31 618.17C821.31 618.37 821.14 618.54 820.81 618.67C819.68 619 818.54 619.42 817.41 619.92C816.28 620.42 815.21 621.04 814.21 621.77C816.88 622.17 819.19 622.82 821.16 623.72C823.13 624.62 824.74 625.72 826.01 627.02C827.28 628.32 828.21 629.72 828.81 631.22C829.41 632.72 829.71 634.27 829.71 635.87C829.71 637.87 829.33 639.7 828.56 641.37C827.79 643.04 826.78 644.47 825.51 645.67C824.24 646.87 822.79 647.8 821.16 648.47C819.53 649.14 817.88 649.47 816.21 649.47ZM803.71 684.37C806.71 684.37 809.39 683.95 811.76 683.12C814.13 682.29 816.13 681.15 817.76 679.72C819.39 678.29 820.63 676.6 821.46 674.67C822.29 672.74 822.71 670.64 822.71 668.37C822.71 658.7 817.67 652.54 807.61 649.87C807.41 649.67 807.44 649.4 807.71 649.07C807.98 648.74 808.34 648.44 808.81 648.17C809.28 647.9 809.81 647.7 810.41 647.57C811.01 647.44 811.51 647.4 811.91 647.47C812.51 647.74 813.06 647.92 813.56 648.02C814.06 648.12 814.71 648.17 815.51 648.17C816.71 648.17 817.89 647.92 819.06 647.42C820.23 646.92 821.26 646.2 822.16 645.27C823.06 644.34 823.79 643.25 824.36 642.02C824.93 640.79 825.21 639.4 825.21 637.87C825.21 634.67 824.06 631.82 821.76 629.32C819.46 626.82 815.91 625.14 811.11 624.27C808.91 626.54 806.94 629.34 805.21 632.67C803.48 636 802.01 640 800.81 644.67C799.08 651 797.29 656.15 795.46 660.12C793.63 664.09 791.74 667.2 789.81 669.47C787.88 671.74 785.88 673.3 783.81 674.17C781.74 675.04 779.64 675.5 777.51 675.57C780.91 678.1 784.88 680.2 789.41 681.87C793.94 683.54 798.71 684.37 803.71 684.37Z" fill="#5F5E66"/>
<path d="M844.31 660.27C846.11 660.27 847.44 660.87 848.31 662.07C849.18 663.27 849.61 664.84 849.61 666.77C849.61 669.04 849.18 671.3 848.31 673.57C847.44 675.84 846.34 677.89 845.01 679.72C843.68 681.55 842.22 683.04 840.66 684.17C839.09 685.3 837.64 685.87 836.31 685.87C834.71 685.87 833.44 685.24 832.51 683.97C831.58 682.7 831.11 680.9 831.11 678.57C831.11 676.7 831.48 674.7 832.21 672.57C832.94 670.44 833.93 668.45 835.16 666.62C836.39 664.79 837.79 663.27 839.36 662.07C840.93 660.87 842.58 660.27 844.31 660.27ZM838.31 682.77C839.31 682.77 840.29 682.42 841.26 681.72C842.22 681.02 843.08 680.09 843.81 678.92C844.54 677.75 845.13 676.4 845.56 674.87C845.99 673.34 846.21 671.74 846.21 670.07C846.21 668.07 845.88 666.49 845.21 665.32C844.54 664.15 843.44 663.57 841.91 663.57C840.91 663.57 839.94 663.92 839.01 664.62C838.08 665.32 837.26 666.25 836.56 667.42C835.86 668.59 835.31 669.95 834.91 671.52C834.51 673.09 834.31 674.74 834.31 676.47C834.31 680.67 835.64 682.77 838.31 682.77Z" fill="#5F5E66"/>
<path d="M864.51 660.27C865.84 660.27 866.96 660.49 867.86 660.92C868.76 661.35 869.21 661.84 869.21 662.37C869.21 663.1 869.06 663.94 868.76 664.87C868.46 665.8 868.14 666.57 867.81 667.17C867.68 667.3 867.49 667.32 867.26 667.22C867.03 667.12 866.94 666.97 867.01 666.77C867.21 666.3 867.34 665.77 867.41 665.17C867.48 664.57 867.44 664.04 867.31 663.57C866.98 662.24 866.04 661.57 864.51 661.57C863.38 661.57 862.46 661.9 861.76 662.57C861.06 663.24 860.71 664.24 860.71 665.57C860.71 666.64 860.99 667.65 861.56 668.62C862.13 669.59 862.76 670.55 863.46 671.52C864.16 672.49 864.79 673.52 865.36 674.62C865.93 675.72 866.21 676.94 866.21 678.27C866.21 680.4 865.46 682.2 863.96 683.67C862.46 685.14 860.21 685.87 857.21 685.87C855.14 685.87 853.44 685.5 852.11 684.77C850.78 684.04 850.11 683.27 850.11 682.47C850.11 681.87 850.48 680.97 851.21 679.77C851.94 678.57 852.78 677.6 853.71 676.87C853.91 676.74 854.09 676.77 854.26 676.97C854.43 677.17 854.44 677.37 854.31 677.57C853.78 678.1 853.38 678.72 853.11 679.42C852.84 680.12 852.78 680.74 852.91 681.27C853.11 682.4 853.63 683.25 854.46 683.82C855.29 684.39 856.28 684.67 857.41 684.67C859.14 684.67 860.49 684.2 861.46 683.27C862.43 682.34 862.91 681.14 862.91 679.67C862.91 678.4 862.61 677.22 862.01 676.12C861.41 675.02 860.76 673.95 860.06 672.92C859.36 671.89 858.73 670.85 858.16 669.82C857.59 668.79 857.31 667.67 857.31 666.47C857.31 664.74 857.96 663.27 859.26 662.07C860.56 660.87 862.31 660.27 864.51 660.27Z" fill="#5F5E66"/>
<path d="M883.3 660.27C884.63 660.27 885.75 660.49 886.65 660.92C887.55 661.35 888 661.84 888 662.37C888 663.1 887.85 663.94 887.55 664.87C887.25 665.8 886.93 666.57 886.6 667.17C886.47 667.3 886.28 667.32 886.05 667.22C885.82 667.12 885.73 666.97 885.8 666.77C886 666.3 886.13 665.77 886.2 665.17C886.27 664.57 886.23 664.04 886.1 663.57C885.77 662.24 884.83 661.57 883.3 661.57C882.17 661.57 881.25 661.9 880.55 662.57C879.85 663.24 879.5 664.24 879.5 665.57C879.5 666.64 879.78 667.65 880.35 668.62C880.92 669.59 881.55 670.55 882.25 671.52C882.95 672.49 883.58 673.52 884.15 674.62C884.72 675.72 885 676.94 885 678.27C885 680.4 884.25 682.2 882.75 683.67C881.25 685.14 879 685.87 876 685.87C873.93 685.87 872.23 685.5 870.9 684.77C869.57 684.04 868.9 683.27 868.9 682.47C868.9 681.87 869.27 680.97 870 679.77C870.73 678.57 871.57 677.6 872.5 676.87C872.7 676.74 872.88 676.77 873.05 676.97C873.22 677.17 873.23 677.37 873.1 677.57C872.57 678.1 872.17 678.72 871.9 679.42C871.63 680.12 871.57 680.74 871.7 681.27C871.9 682.4 872.42 683.25 873.25 683.82C874.08 684.39 875.07 684.67 876.2 684.67C877.93 684.67 879.28 684.2 880.25 683.27C881.22 682.34 881.7 681.14 881.7 679.67C881.7 678.4 881.4 677.22 880.8 676.12C880.2 675.02 879.55 673.95 878.85 672.92C878.15 671.89 877.52 670.85 876.95 669.82C876.38 668.79 876.1 667.67 876.1 666.47C876.1 664.74 876.75 663.27 878.05 662.07C879.35 660.87 881.1 660.27 883.3 660.27Z" fill="#5F5E66"/>
<path d="M908.8 664.67C908.8 665.6 908.43 666.47 907.7 667.27C906.97 668.07 905.97 668.79 904.7 669.42C903.43 670.05 901.98 670.64 900.35 671.17C898.72 671.7 897 672.2 895.2 672.67C895.13 673.4 895.08 674.14 895.05 674.87C895.02 675.6 895 676.4 895 677.27C895 678.94 895.37 680.34 896.1 681.47C896.83 682.6 897.87 683.17 899.2 683.17C900.53 683.17 901.78 682.84 902.95 682.17C904.12 681.5 905.17 680.6 906.1 679.47C906.37 679.34 906.56 679.37 906.7 679.57C906.83 679.77 906.83 680 906.7 680.27C905.57 681.8 904.15 683.12 902.45 684.22C900.75 685.32 898.97 685.87 897.1 685.87C895.37 685.87 893.95 685.3 892.85 684.17C891.75 683.04 891.2 681.37 891.2 679.17C891.2 677.17 891.57 675.05 892.3 672.82C893.03 670.59 894 668.54 895.2 666.67C896.4 664.8 897.78 663.27 899.35 662.07C900.92 660.87 902.56 660.27 904.3 660.27C905.57 660.27 906.63 660.72 907.5 661.62C908.37 662.52 908.8 663.54 908.8 664.67ZM902.2 662.87C900.67 662.87 899.3 663.54 898.1 664.87C896.9 666.2 896.03 668.3 895.5 671.17C898.7 670.7 901.05 670.02 902.55 669.12C904.05 668.22 904.8 667.2 904.8 666.07C904.8 665.14 904.57 664.37 904.1 663.77C903.63 663.17 903 662.87 902.2 662.87Z" fill="#5F5E66"/>
</svg>
