<svg width="100" height="100" viewBox="0 0 100 100" fill="none" xmlns="http://www.w3.org/2000/svg">
<path fill-rule="evenodd" clip-rule="evenodd" d="M13.8838 90.0036L5.85938 0H94.0343L86.0013 89.9895L49.8929 100L13.8838 90.0036Z" fill="#988574"/>
<path fill-rule="evenodd" clip-rule="evenodd" d="M49.9468 92.3484L79.1242 84.2593L85.9889 7.35913H49.9468V92.3484Z" fill="#5F5E66"/>
<path d="M35.3397 40.7403H49.9466V51.7788H25.2444L22.2671 18.3979H49.9466V29.4366H34.3309L35.3397 40.7403Z" fill="#5F5E66"/>
<path d="M49.8982 69.4216L49.9466 69.4087V80.8934L49.8958 80.9075L27.2841 74.6304L25.7376 57.2982H36.8186L37.6045 66.102L49.8982 69.4216Z" fill="#5F5E66"/>
<path d="M49.9087 18.3979H77.5605L76.5721 29.4366H49.9087V18.3979Z" fill="#EFEBE0"/>
<path d="M49.9087 51.7788V40.7403H75.5677L75.2984 43.7045L72.5384 74.6304L49.9087 80.9022V69.4179L62.2202 66.095L63.5015 51.7788H49.9087Z" fill="#EFEBE0"/>
</svg>
