<svg width="70" height="70" viewBox="0 0 70 70" fill="none" xmlns="http://www.w3.org/2000/svg">
<path fill-rule="evenodd" clip-rule="evenodd" d="M9.71868 63.0026L4.10156 0H65.824L60.2009 62.9927L34.925 70L9.71868 63.0026Z" fill="#F25C05"/>
<path fill-rule="evenodd" clip-rule="evenodd" d="M34.9628 64.6439L55.387 58.9815L60.1922 5.15137H34.9628V64.6439Z" fill="#7C459C"/>
<path d="M24.738 28.5182H34.9628V36.2451H17.6713L15.5872 12.8785H34.9628V20.6056H24.0318L24.738 28.5182Z" fill="#7C459C"/>
<path d="M34.929 48.5951L34.9628 48.5861V56.6254L34.9273 56.6353L19.0991 52.2412L18.0165 40.1087H25.7732L26.3233 46.2714L34.929 48.5951Z" fill="#7C459C"/>
<path d="M34.936 12.8785H54.2923L53.6004 20.6056H34.936V12.8785Z" fill="#EFEBE0"/>
<path d="M34.936 36.2451V28.5182H52.8973L52.7088 30.5931L50.7768 52.2412L34.936 56.6315V48.5925L43.5541 46.2665L44.451 36.2451H34.936Z" fill="#EFEBE0"/>
</svg>
