<svg width="70" height="70" viewBox="0 0 70 70" fill="none" xmlns="http://www.w3.org/2000/svg">
<g clip-path="url(#clip0_127_503)">
<path d="M25.3333 1.5H44.6667C49.1252 1.5 52.3788 1.50117 54.9438 1.71073C57.4913 1.91887 59.2271 2.32508 60.6739 3.06224C63.3709 4.43643 65.5636 6.62915 66.9378 9.32614C67.6749 10.7729 68.0811 12.5087 68.2893 15.0562C68.4988 17.6212 68.5 20.8748 68.5 25.3333V44.6667C68.5 49.1252 68.4988 52.3788 68.2893 54.9438C68.0811 57.4913 67.6749 59.2271 66.9378 60.6739C65.5636 63.3709 63.3709 65.5636 60.6739 66.9378C59.2271 67.6749 57.4913 68.0811 54.9438 68.2893C52.3788 68.4988 49.1252 68.5 44.6667 68.5H25.3333C20.8748 68.5 17.6212 68.4988 15.0562 68.2893C12.5087 68.0811 10.7729 67.6749 9.32614 66.9378C6.62915 65.5636 4.43643 63.3709 3.06224 60.6739C2.32508 59.2271 1.91887 57.4913 1.71073 54.9438C1.50117 52.3788 1.5 49.1252 1.5 44.6667V25.3333C1.5 20.8748 1.50117 17.6212 1.71073 15.0562C1.91887 12.5087 2.32508 10.7729 3.06224 9.32614C4.43642 6.62915 6.62915 4.43642 9.32614 3.06224C10.7729 2.32508 12.5087 1.91887 15.0562 1.71073C17.6212 1.50117 20.8748 1.5 25.3333 1.5Z" fill="#EFEBE0" stroke="#7C459C" stroke-width="3"/>
<path d="M23.9802 20.4888V51.1681C23.9802 51.4895 23.8394 51.65 23.5577 51.6498H17.8756C17.6248 51.6498 17.4996 51.4893 17.5 51.1681V20.4888C17.5 20.2321 17.6409 20.1037 17.9225 20.1034H23.6045C23.8201 20.072 24.0108 20.2677 23.9802 20.4888Z" fill="#7C459C"/>
<path d="M40.7914 52.1313C38.63 52.165 36.4884 51.7043 34.5224 50.7827C30.3485 48.8014 28.5348 44.4163 28.5353 39.898C28.4992 35.3909 30.8864 31.0963 34.7807 28.9651C37.469 27.4379 40.6312 27.0499 43.6558 27.3277V17.8397C43.6558 17.6154 43.7498 17.5025 43.9376 17.5025H49.8543C50.016 17.4788 50.1591 17.6256 50.1361 17.7914V46.2555C50.1361 47.4299 50.2525 48.6001 50.324 49.7713C50.3355 49.9714 50.2197 50.1692 50.0421 50.2529C48.5157 50.9059 46.9258 51.3902 45.2994 51.6978C43.8123 51.9793 42.3036 52.1244 40.7914 52.1313ZM43.6558 46.1591V33.0108C39.3863 31.8245 35.2027 35.0843 35.2033 39.609C35.1001 44.3477 39.3252 47.4582 43.6558 46.1591Z" fill="#7C459C"/>
</g>
<defs>
<clipPath id="clip0_127_503">
<rect width="70" height="70" fill="white"/>
</clipPath>
</defs>
</svg>
