<svg width="100" height="100" viewBox="0 0 100 100" fill="none" xmlns="http://www.w3.org/2000/svg">
<g clip-path="url(#clip0_81_442)">
<path d="M0 36.1905C0 23.5226 0 17.1887 2.46533 12.3502C4.63389 8.09417 8.09417 4.63389 12.3502 2.46533C17.1887 0 23.5226 0 36.1905 0H63.8095C76.4774 0 82.8113 0 87.6498 2.46533C91.9058 4.63389 95.3661 8.09417 97.5347 12.3502C100 17.1887 100 23.5226 100 36.1905V63.8095C100 76.4774 100 82.8113 97.5347 87.6498C95.3661 91.9058 91.9058 95.3661 87.6498 97.5347C82.8113 100 76.4774 100 63.8095 100H36.1905C23.5226 100 17.1887 100 12.3502 97.5347C8.09417 95.3661 4.63389 91.9058 2.46533 87.6498C0 82.8113 0 76.4774 0 63.8095V36.1905Z" fill="#988574"/>
<path d="M34.2574 29.2696V73.0974C34.2574 73.5564 34.0562 73.7858 33.6538 73.7854H25.5365C25.1782 73.7854 24.9994 73.5561 25 73.0974V29.2696C25 28.903 25.2012 28.7195 25.6036 28.7192H33.7207C34.0287 28.6743 34.3012 28.9538 34.2574 29.2696Z" fill="#F8F0E7"/>
<path d="M58.2734 74.4733C55.1857 74.5214 52.1263 73.8633 49.3177 72.5468C43.355 69.7163 40.764 63.4519 40.7646 56.9972C40.7132 50.5584 44.1234 44.4233 49.6868 41.3788C53.5271 39.1969 58.0445 38.6427 62.3654 39.0395V25.4852C62.3654 25.1648 62.4997 25.0036 62.768 25.0036H71.2204C71.4514 24.9697 71.6559 25.1794 71.623 25.4164V66.0792C71.623 67.757 71.7892 69.4288 71.8914 71.1018C71.9078 71.3877 71.7424 71.6703 71.4887 71.7899C69.3082 72.7227 67.0369 73.4146 64.7134 73.8539C62.5889 74.2561 60.4337 74.4634 58.2734 74.4733ZM62.3654 65.9416V47.1583C56.2661 45.4636 50.2896 50.1204 50.2904 56.5843C50.143 63.3539 56.1789 67.7974 62.3654 65.9416Z" fill="#F8F0E7"/>
</g>
<defs>
<clipPath id="clip0_81_442">
<rect width="100" height="100" fill="white"/>
</clipPath>
</defs>
</svg>
