<svg width="70" height="70" viewBox="0 0 70 70" fill="none" xmlns="http://www.w3.org/2000/svg">
<path fill-rule="evenodd" clip-rule="evenodd" d="M35 8.75C27.8705 8.75 26.978 8.77975 24.178 8.9075C21.3832 9.03525 19.474 9.47975 17.8045 10.129C16.0545 10.787 14.4672 11.8195 13.1547 13.1565C11.8199 14.4675 10.7868 16.0536 10.1273 17.8045C9.4815 19.474 9.03525 21.385 8.9075 24.1798C8.7815 26.978 8.75 27.8688 8.75 35C8.75 42.1312 8.77975 43.022 8.9075 45.822C9.03525 48.6168 9.47975 50.526 10.129 52.1955C10.787 53.9455 11.8195 55.5327 13.1565 56.8452C14.4675 58.1801 16.0536 59.2132 17.8045 59.8727C19.474 60.5202 21.3832 60.9647 24.178 61.0925C26.978 61.2202 27.8705 61.25 35 61.25C42.1295 61.25 43.022 61.2202 45.822 61.0925C48.6168 60.9647 50.526 60.5202 52.1955 59.871C53.9455 59.213 55.5327 58.1805 56.8452 56.8435C58.1801 55.5325 59.2132 53.9464 59.8727 52.1955C60.5202 50.526 60.9647 48.6168 61.0925 45.822C61.2202 43.022 61.25 42.1295 61.25 35C61.25 27.8705 61.2202 26.978 61.0925 24.178C60.9647 21.3832 60.5202 19.474 59.871 17.8045C59.212 16.0529 58.1788 14.4661 56.8435 13.1547C55.5325 11.8199 53.9464 10.7868 52.1955 10.1273C50.526 9.4815 48.615 9.03525 45.8203 8.9075C43.022 8.7815 42.1312 8.75 35 8.75ZM35 13.4803C42.0088 13.4803 42.84 13.5065 45.6085 13.6325C48.167 13.7497 49.5565 14.175 50.4823 14.5372C51.7073 15.0115 52.5823 15.582 53.501 16.499C54.4198 17.4177 54.9885 18.2927 55.4628 19.5177C55.8233 20.4435 56.2502 21.833 56.3675 24.3915C56.4935 27.16 56.5198 27.9912 56.5198 35C56.5198 42.0088 56.4935 42.84 56.3675 45.6085C56.2502 48.167 55.825 49.5565 55.4628 50.4823C55.0426 51.6225 54.3723 52.654 53.501 53.501C52.6541 54.3725 51.6226 55.0428 50.4823 55.4628C49.5565 55.8233 48.167 56.2502 45.6085 56.3675C42.84 56.4935 42.0105 56.5198 35 56.5198C27.9895 56.5198 27.16 56.4935 24.3915 56.3675C21.833 56.2502 20.4435 55.825 19.5177 55.4628C18.3775 55.0426 17.346 54.3723 16.499 53.501C15.6278 52.6539 14.9575 51.6224 14.5372 50.4823C14.1767 49.5565 13.7497 48.167 13.6325 45.6085C13.5065 42.84 13.4803 42.0088 13.4803 35C13.4803 27.9912 13.5065 27.16 13.6325 24.3915C13.7497 21.833 14.175 20.4435 14.5372 19.5177C15.0115 18.2927 15.582 17.4177 16.499 16.499C17.3459 15.6276 18.3775 14.9572 19.5177 14.5372C20.4435 14.1767 21.833 13.7497 24.3915 13.6325C27.16 13.5065 27.9912 13.4803 35 13.4803V13.4803Z" fill="#7C459C"/>
<path fill-rule="evenodd" clip-rule="evenodd" d="M34.9999 43.7587C33.8497 43.7587 32.7108 43.5322 31.6481 43.092C30.5855 42.6519 29.6199 42.0067 28.8066 41.1934C27.9932 40.38 27.3481 39.4145 26.9079 38.3518C26.4677 37.2892 26.2412 36.1502 26.2412 35C26.2412 33.8498 26.4677 32.7108 26.9079 31.6482C27.3481 30.5855 27.9932 29.62 28.8066 28.8066C29.6199 27.9933 30.5855 27.3481 31.6481 26.908C32.7108 26.4678 33.8497 26.2412 34.9999 26.2412C37.3229 26.2412 39.5507 27.164 41.1933 28.8066C42.8359 30.4492 43.7587 32.677 43.7587 35C43.7587 37.323 42.8359 39.5508 41.1933 41.1934C39.5507 42.836 37.3229 43.7587 34.9999 43.7587V43.7587ZM34.9999 21.5075C31.4215 21.5075 27.9896 22.929 25.4593 25.4594C22.929 27.9897 21.5074 31.4216 21.5074 35C21.5074 38.5784 22.929 42.0103 25.4593 44.5406C27.9896 47.071 31.4215 48.4925 34.9999 48.4925C38.5784 48.4925 42.0102 47.071 44.5406 44.5406C47.0709 42.0103 48.4924 38.5784 48.4924 35C48.4924 31.4216 47.0709 27.9897 44.5406 25.4594C42.0102 22.929 38.5784 21.5075 34.9999 21.5075V21.5075ZM52.4177 21.2625C52.4177 22.1084 52.0817 22.9196 51.4835 23.5177C50.8854 24.1158 50.0742 24.4519 49.2283 24.4519C48.3824 24.4519 47.5712 24.1158 46.9731 23.5177C46.375 22.9196 46.0389 22.1084 46.0389 21.2625C46.0389 20.4166 46.375 19.6054 46.9731 19.0073C47.5712 18.4091 48.3824 18.0731 49.2283 18.0731C50.0742 18.0731 50.8854 18.4091 51.4835 19.0073C52.0817 19.6054 52.4177 20.4166 52.4177 21.2625" fill="#7C459C"/>
</svg>
