<svg width="70" height="70" viewBox="0 0 70 70" fill="none" xmlns="http://www.w3.org/2000/svg">
<g clip-path="url(#clip0_127_495)">
<path fill-rule="evenodd" clip-rule="evenodd" d="M34.9422 51.7051C50.0657 72.3221 64.8663 45.9508 64.8445 30.0922C64.8188 11.342 45.8146 0.862671 34.9298 0.862671C17.4586 0.862671 0.820312 15.3019 0.820312 35.0577C0.820312 57.0164 19.8927 69.1797 34.9298 69.1797C31.527 68.6897 20.1871 66.2599 20.0347 40.1412C19.9322 22.476 25.7972 15.4183 34.9051 18.5229C35.1091 18.5986 44.9514 22.4811 44.9514 35.1644C44.9514 47.7937 34.9422 51.7051 34.9422 51.7051V51.7051V51.7051Z" fill="#7C459C"/>
<path fill-rule="evenodd" clip-rule="evenodd" d="M34.9245 18.5086C24.9312 15.0642 12.6893 23.3006 12.6893 39.7978C12.6893 66.7348 32.6505 69.1797 35.0703 69.1797C52.5414 69.1797 69.1797 54.7404 69.1797 34.9847C69.1797 13.0259 50.1073 0.862665 35.0703 0.862665C39.2351 0.285883 57.5181 5.37007 57.5181 30.3584C57.5181 46.654 43.8664 55.5253 34.9871 51.735C34.7831 51.6593 24.9409 47.7767 24.9409 35.0935C24.9409 22.4641 34.9245 18.5086 34.9245 18.5086V18.5086V18.5086Z" fill="#F25C05"/>
</g>
<defs>
<clipPath id="clip0_127_495">
<rect width="70" height="70" fill="white"/>
</clipPath>
</defs>
</svg>
