<svg width="100" height="100" viewBox="0 0 100 100" fill="none" xmlns="http://www.w3.org/2000/svg">
<path fill-rule="evenodd" clip-rule="evenodd" d="M49.9174 73.8645C71.5224 103.317 92.6661 65.644 92.6351 42.9888C92.5983 16.2029 65.4494 1.23242 49.8997 1.23242C24.9409 1.23242 1.17188 21.8599 1.17188 50.0825C1.17188 81.4521 28.4182 98.8282 49.8997 98.8282C45.0385 98.1282 28.8387 94.6571 28.621 57.3445C28.4746 32.1086 36.8532 22.0262 49.8645 26.4613C50.1559 26.5694 64.2162 32.1159 64.2162 50.2348C64.2162 68.2768 49.9174 73.8645 49.9174 73.8645V73.8645V73.8645Z" fill="#F8F0E7"/>
<path fill-rule="evenodd" clip-rule="evenodd" d="M49.892 26.4409C35.6158 21.5203 18.1274 33.2865 18.1274 56.854C18.1274 95.3354 46.6434 98.8281 50.1002 98.8281C75.0589 98.8281 98.828 78.2006 98.828 49.9781C98.828 18.6085 71.5816 1.23238 50.1002 1.23238C56.05 0.408404 82.1686 7.67153 82.1686 43.3691C82.1686 66.6486 62.6661 79.3218 49.9814 73.9071C49.69 73.799 35.6297 68.2525 35.6297 50.1336C35.6297 32.0916 49.892 26.4409 49.892 26.4409V26.4409V26.4409Z" fill="#5F5E66"/>
</svg>
