<svg width="70" height="70" viewBox="0 0 70 70" fill="none" xmlns="http://www.w3.org/2000/svg">
<path d="M0.506592 7.74744H55.4934V62.1615H0.506592V7.74744Z" fill="#7C459C"/>
<path d="M56 62.6628H0V7.24609H56V62.6628ZM1.05175 61.6157H54.9477V8.29318H1.05175V61.6157Z" fill="#7C459C"/>
<path d="M37.5048 50.456C38.6149 52.269 40.0593 53.6013 42.6143 53.6013C44.7603 53.6013 46.1312 52.5285 46.1312 51.0469C46.1312 49.2712 44.723 48.6418 42.3605 47.6087L41.0661 47.0534C37.3287 45.4615 34.846 43.4665 34.846 39.2495C34.846 35.3651 37.8052 32.4082 42.4311 32.4082C45.724 32.4082 48.0918 33.5545 49.7974 36.5551L45.7642 39.1445C44.8764 37.552 43.9186 36.925 42.4311 36.925C40.9138 36.925 39.9525 37.8875 39.9525 39.1445C39.9525 40.698 40.915 41.3274 43.1369 42.2899L44.4319 42.8446C48.8326 44.7317 51.317 46.6555 51.317 50.981C51.317 55.6435 47.6543 58.1985 42.7344 58.1985C37.9243 58.1985 34.8168 55.9066 33.2961 52.9025C33.2961 52.9013 37.5048 50.456 37.5048 50.456ZM56.1884 50.456C57.2985 52.269 58.7428 53.6013 61.2978 53.6013C63.4439 53.6013 64.8148 52.5285 64.8148 51.0469C64.8148 49.2712 63.4066 48.6418 61.0441 47.6087L59.7497 47.0534C56.0122 45.4615 53.5296 43.4665 53.5296 39.2495C53.5296 35.3651 56.4888 32.4082 61.1147 32.4082C64.4076 32.4082 66.7753 33.5545 68.481 36.5551L64.4478 39.1445C63.56 37.552 62.6022 36.925 61.1147 36.925C59.5974 36.925 58.6361 37.8875 58.6361 39.1445C58.6361 40.698 59.5986 41.3274 61.8205 42.2899L63.1155 42.8446C67.5156 44.7311 70 46.655 70 50.9804C70 55.643 66.3373 58.198 61.4174 58.198C56.6073 58.198 53.4998 55.906 51.9791 52.9019L56.1884 50.456ZM19.2092 50.9051C20.0229 52.3489 20.7632 53.5692 22.5423 53.5692C24.2439 53.5692 25.3172 52.9036 25.3172 50.3148V32.7034H30.4961V50.3842C30.4961 55.7468 27.3519 58.188 22.7622 58.188C18.6153 58.188 16.2137 56.042 14.9922 53.4572L19.2092 50.9051C19.2092 50.9051 19.2092 50.9045 19.2092 50.9051Z" fill="#F25C05"/>
</svg>
