<svg width="100" height="100" viewBox="0 0 100 100" fill="none" xmlns="http://www.w3.org/2000/svg">
<path d="M0.723633 11.0676H79.2763V88.802H0.723633V11.0676Z" fill="#EFEBE0"/>
<path d="M80 89.5182H0V10.3516H80V89.5182ZM1.5025 88.0224H78.4967V11.8474H1.5025V88.0224Z" fill="#EFEBE0"/>
<path d="M53.5783 72.0799C55.1641 74.6699 57.2275 76.5732 60.8775 76.5732C63.9433 76.5732 65.9016 75.0407 65.9016 72.924C65.9016 70.3874 63.89 69.4882 60.515 68.0124L58.6658 67.219C53.3266 64.9449 49.78 62.0949 49.78 56.0707C49.78 50.5215 54.0075 46.2974 60.6158 46.2974C65.32 46.2974 68.7025 47.9349 71.1391 52.2215L65.3775 55.9207C64.1091 53.6457 62.7408 52.7499 60.6158 52.7499C58.4483 52.7499 57.075 54.1249 57.075 55.9207C57.075 58.1399 58.45 59.039 61.6241 60.414L63.4741 61.2065C69.7608 63.9024 73.31 66.6507 73.31 72.8299C73.31 79.4907 68.0775 83.1407 61.0491 83.1407C54.1775 83.1407 49.7383 79.8665 47.5658 75.5749C47.5658 75.5732 53.5783 72.0799 53.5783 72.0799ZM80.2691 72.0799C81.855 74.6699 83.9183 76.5732 87.5683 76.5732C90.6341 76.5732 92.5925 75.0407 92.5925 72.924C92.5925 70.3874 90.5808 69.4882 87.2058 68.0124L85.3566 67.219C80.0175 64.9449 76.4708 62.0949 76.4708 56.0707C76.4708 50.5215 80.6983 46.2974 87.3066 46.2974C92.0108 46.2974 95.3933 47.9349 97.83 52.2215L92.0683 55.9207C90.8 53.6457 89.4316 52.7499 87.3066 52.7499C85.1391 52.7499 83.7658 54.1249 83.7658 55.9207C83.7658 58.1399 85.1408 59.039 88.315 60.414L90.165 61.2065C96.4508 63.9015 100 66.6499 100 72.829C100 79.4899 94.7675 83.1399 87.7391 83.1399C80.8675 83.1399 76.4283 79.8657 74.2558 75.574L80.2691 72.0799ZM27.4416 72.7215C28.6041 74.784 29.6616 76.5274 32.2033 76.5274C34.6341 76.5274 36.1675 75.5765 36.1675 71.8782V46.719H43.5658V71.9774C43.5658 79.6382 39.0741 83.1257 32.5175 83.1257C26.5933 83.1257 23.1625 80.0599 21.4175 76.3674L27.4416 72.7215C27.4416 72.7215 27.4416 72.7207 27.4416 72.7215Z" fill="#5F5E66"/>
</svg>
