<svg width="70" height="70" viewBox="0 0 70 70" fill="none" xmlns="http://www.w3.org/2000/svg">
<path d="M61.25 12.6103V57.3897C61.25 58.4135 60.8433 59.3954 60.1194 60.1194C59.3954 60.8433 58.4135 61.25 57.3897 61.25H12.6103C11.5865 61.25 10.6046 60.8433 9.88065 60.1194C9.15671 59.3954 8.75 58.4135 8.75 57.3897V12.6103C8.75 11.5865 9.15671 10.6046 9.88065 9.88065C10.6046 9.15671 11.5865 8.75 12.6103 8.75H57.3897C58.4135 8.75 59.3954 9.15671 60.1194 9.88065C60.8433 10.6046 61.25 11.5865 61.25 12.6103V12.6103ZM24.1912 28.8235H16.4706V53.5294H24.1912V28.8235ZM24.886 20.3309C24.8901 19.7469 24.7791 19.1678 24.5594 18.6267C24.3396 18.0856 24.0155 17.5931 23.6054 17.1773C23.1953 16.7614 22.7073 16.4305 22.1693 16.2032C21.6313 15.976 21.0539 15.857 20.4699 15.8529H20.3309C19.1433 15.8529 18.0043 16.3247 17.1645 17.1645C16.3247 18.0043 15.8529 19.1433 15.8529 20.3309C15.8529 21.5185 16.3247 22.6575 17.1645 23.4973C18.0043 24.337 19.1433 24.8088 20.3309 24.8088V24.8088C20.9149 24.8232 21.4961 24.7223 22.0411 24.512C22.5862 24.3017 23.0844 23.9861 23.5075 23.5831C23.9305 23.1802 24.27 22.6978 24.5065 22.1637C24.743 21.6295 24.872 21.0539 24.886 20.4699V20.3309ZM53.5294 38.5206C53.5294 31.0934 48.8044 28.2059 44.1103 28.2059C42.5733 28.1289 41.0431 28.4563 39.6721 29.1553C38.3012 29.8543 37.1375 30.9006 36.2971 32.1897H36.0809V28.8235H28.8235V53.5294H36.5441V40.389C36.4325 39.0432 36.8564 37.7077 37.7238 36.6726C38.5912 35.6376 39.8319 34.9866 41.1765 34.861H41.4699C43.925 34.861 45.7471 36.4051 45.7471 40.2963V53.5294H53.4676L53.5294 38.5206Z" fill="#7C459C"/>
</svg>
