<?xml version="1.0" encoding="UTF-8"?><svg id="Layer_1" xmlns="http://www.w3.org/2000/svg" width="796.5" height="694" viewBox="0 0 796.5 694"><defs><style>.cls-1{fill:#5f5e66;}.cls-2{fill:#efebe0;stroke:#f25c05;stroke-miterlimit:10;stroke-width:3px;}</style></defs><rect class="cls-2" x="10" y="11" width="600.5" height="600" rx="300" ry="300"/><path class="cls-1" d="m177.47,382.41v-141.16h17.34l49.59,103.05h-9.08l48.78-103.05h17.34l.16,141.16h-19.93l-.16-102.24h4.21l-41.49,86.11h-9.4l-42.14-86.11h4.86v102.24h-20.1Z"/><path class="cls-1" d="m336.18,240h59.55c18.19,0,32.5,3.02,42.92,9.06,10.42,6.04,15.63,15.55,15.63,28.54,0,7.79-2.52,14.12-7.57,19-5.05,4.87-11.29,8.35-18.73,10.42v.39c9.1,2.08,16.54,5.91,22.33,11.49,5.79,5.59,8.68,12.92,8.68,22.02,0,12.99-5.44,23.05-16.31,30.2-10.88,7.14-25.29,10.72-43.23,10.72h-63.27s0-141.83,0-141.83Zm59.55,60.4c12.41,0,21.34-2.01,26.8-6.04,5.46-4.03,8.19-9.61,8.19-16.75s-2.73-12.63-8.19-16.46c-5.46-3.83-14.39-5.75-26.8-5.75h-36.22s0,45,0,45h36.22Zm3.72,66.05c12.41,0,21.5-2.3,27.29-6.92,5.79-4.61,8.68-10.81,8.68-18.61,0-7.79-2.9-13.96-8.68-18.51-5.79-4.55-14.89-6.82-27.29-6.82h-39.95s0,50.85,0,50.85h39.95Z"/><g><path class="cls-1" d="m526.71,399.27c.33,0,.57.17.7.5.13.33.1.63-.1.9-3.2,2.8-6.08,6.15-8.65,10.05-2.57,3.9-4.78,8.02-6.65,12.35-1.87,4.33-3.3,8.75-4.3,13.25s-1.5,8.72-1.5,12.65c0,3.6.43,6.42,1.3,8.45.87,2.03,2.07,3.05,3.6,3.05,2.53,0,5.03-1.87,7.5-5.6.2-.2.42-.22.65-.05.23.17.32.38.25.65-.73,1.13-1.55,2.25-2.45,3.35-.9,1.1-1.85,2.1-2.85,3-1,.9-1.98,1.63-2.95,2.2-.97.57-1.85.85-2.65.85-1.73,0-3.27-1.02-4.6-3.05-1.33-2.03-2-5.15-2-9.35,0-3.46.35-7.2,1.05-11.2s1.75-8.02,3.15-12.05c1.4-4.03,3.15-7.95,5.25-11.75,2.1-3.8,4.52-7.27,7.25-10.4-4.13,3.07-8.35,6.75-12.65,11.05s-8.43,8.9-12.4,13.8c-3.97,4.9-7.65,9.93-11.05,15.1-3.4,5.17-6.23,10.15-8.5,14.95-.27.47-.77,1.07-1.5,1.8-.73.73-1.3,1.1-1.7,1.1-.47,0-.7-.23-.7-.7,1.27-10.33,3.08-19.52,5.45-27.55,2.37-8.03,5.18-15.45,8.45-22.25-5.33,8-10.57,15.13-15.7,21.4-5.13,6.27-10.27,11.55-15.4,15.85-5.13,4.3-10.37,7.58-15.7,9.85-5.33,2.27-10.87,3.4-16.6,3.4-2.73,0-5.17-.43-7.3-1.3-2.13-.87-3.97-2.07-5.5-3.6-1.53-1.53-2.7-3.33-3.5-5.4-.8-2.07-1.2-4.33-1.2-6.8,0-3.2.75-6.13,2.25-8.8,1.5-2.67,3.72-4.77,6.65-6.3.27-.13.45-.07.55.2.1.27.08.53-.05.8-2.07,1.33-3.52,2.87-4.35,4.6-.83,1.73-1.25,4-1.25,6.8,0,2.2.37,4.28,1.1,6.25.73,1.97,1.82,3.68,3.25,5.15,1.43,1.47,3.2,2.63,5.3,3.5,2.1.87,4.55,1.3,7.35,1.3,5.87,0,11.48-1.35,16.85-4.05,5.37-2.7,10.58-6.42,15.65-11.15,5.07-4.73,10.03-10.27,14.9-16.6,4.87-6.33,9.73-13.17,14.6-20.5-4.67-1.6-9.55-2.95-14.65-4.05-5.1-1.1-9.98-1.65-14.65-1.65-5,0-9.17,1.45-12.5,4.35-3.33,2.9-5.37,7.32-6.1,13.25-.13.33-.32.47-.55.4-.23-.07-.38-.27-.45-.6.73-6.53,3.13-11.53,7.2-15,4.07-3.47,9.37-5.2,15.9-5.2,2.73,0,5.5.18,8.3.55,2.8.37,5.53.83,8.2,1.4,2.67.57,5.22,1.2,7.65,1.9,2.43.7,4.65,1.38,6.65,2.05.13-.07.28-.1.45-.1s.32-.03.45-.1c.27,0,.42.13.45.4.03.27-.02.5-.15.7-.93.6-1.7,1.33-2.3,2.2-.6.87-1.27,2-2,3.4-3.33,6.67-5.98,13.65-7.95,20.95-1.97,7.3-3.62,14.68-4.95,22.15,3.13-5.53,6.73-11.07,10.8-16.6,4.07-5.53,8.37-10.8,12.9-15.8,4.53-5,9.2-9.58,14-13.75,4.8-4.17,9.47-7.68,14-10.55Z"/><path class="cls-1" d="m525.21,446.27c-.2.13-.38.08-.55-.15-.17-.23-.18-.45-.05-.65.93-.93,2.2-2,3.8-3.2,1.6-1.2,3.2-2.2,4.8-3,.53,0,.8.3.8.9-.87,1.53-1.72,3.2-2.55,5-.83,1.8-1.57,3.58-2.2,5.35-.63,1.77-1.15,3.47-1.55,5.1-.4,1.63-.6,2.98-.6,4.05,0,1.4.47,2.1,1.4,2.1.73,0,1.45-.32,2.15-.95.7-.63,1.52-1.48,2.45-2.55.13-.13.3-.1.5.1.2.2.23.43.1.7-1.2,1.47-2.48,2.8-3.85,4-1.37,1.2-2.65,1.8-3.85,1.8-1.73,0-2.6-1.1-2.6-3.3,0-1.27.21-2.78.65-4.55.43-1.77.98-3.55,1.65-5.35.67-1.8,1.42-3.53,2.25-5.2.83-1.67,1.65-3.1,2.45-4.3-.73.53-1.65,1.22-2.75,2.05-1.1.83-1.92,1.52-2.45,2.05Zm9-11.3c-.2.2-.38.22-.55.05-.17-.17-.29-.4-.35-.7-.07-.3-.1-.65-.1-1.05s.1-.73.3-1c1.73-2.4,4.17-4.97,7.3-7.7.2-.07.4-.02.6.15.2.17.23.32.1.45-1.4,1.27-2.73,2.78-4,4.55-1.27,1.77-2.37,3.52-3.3,5.25Z"/><path class="cls-1" d="m561.91,458.57c.13-.13.3-.13.5,0,.2.13.27.33.2.6-1.4,1.93-2.78,3.37-4.15,4.3-1.37.93-2.52,1.4-3.45,1.4-.6,0-1.08-.3-1.45-.9-.37-.6-.6-1.42-.7-2.45-.1-1.03-.07-2.2.1-3.5.17-1.3.45-2.65.85-4.05-1.8,2.8-3.7,5.22-5.7,7.25-2,2.04-3.93,3.25-5.8,3.65-1.2,0-2.22-.58-3.05-1.75-.83-1.17-1.25-2.98-1.25-5.45,0-2.2.45-4.38,1.35-6.55.9-2.17,2.12-4.13,3.65-5.9,1.53-1.77,3.3-3.18,5.3-4.25,2-1.07,4.1-1.6,6.3-1.6,1.2,0,2.23.13,3.1.4.87.27,1.67.67,2.4,1.2.4-.33.95-.65,1.65-.95.7-.3,1.35-.45,1.95-.45.33,0,.43.17.3.5-1.53,1.87-2.85,3.93-3.95,6.2-1.1,2.27-1.95,4.47-2.55,6.6-.6,2.13-.98,4.02-1.15,5.65-.17,1.63-.05,2.75.35,3.35.33.47.93.48,1.8.05.87-.43,2-1.55,3.4-3.35Zm-17.4,2.9c.73,0,1.68-.52,2.85-1.55,1.17-1.03,2.38-2.38,3.65-4.05,1.27-1.67,2.52-3.55,3.75-5.65,1.23-2.1,2.32-4.21,3.25-6.35-.27-.87-.88-1.57-1.85-2.1-.97-.53-2.08-.8-3.35-.8-1.47,0-2.85.38-4.15,1.15-1.3.77-2.45,1.83-3.45,3.2-1,1.37-1.8,2.98-2.4,4.85-.6,1.87-.9,3.93-.9,6.2,0,1.47.25,2.68.75,3.65.5.97,1.12,1.45,1.85,1.45Z"/><path class="cls-1" d="m631.21,428.47c3.8,1.73,6.57,4.13,8.3,7.2,1.73,3.07,2.6,6.23,2.6,9.5,0,6.07-2.15,10.87-6.45,14.4-4.3,3.53-10.72,5.3-19.25,5.3-6.87,0-13.08-1.13-18.65-3.4-5.57-2.27-10.68-5.37-15.35-9.3-.2-.27-.13-.55.2-.85.33-.3.75-.57,1.25-.8.5-.23,1.05-.4,1.65-.5.6-.1,1.1-.05,1.5.15,1.27,1.33,2.55,2.18,3.85,2.55,1.3.37,2.85.38,4.65.05,1.73-.33,3.28-1,4.65-2,1.37-1,2.67-2.53,3.9-4.6,1.23-2.07,2.47-4.77,3.7-8.1,1.23-3.33,2.55-7.53,3.95-12.6,1.4-4.93,3.08-9.27,5.05-13,1.97-3.73,4.35-6.87,7.15-9.4-.6-.13-1.2-.2-1.8-.2h-2c-2.2,0-4.38.32-6.55.95-2.17.63-4.22,1.55-6.15,2.75s-3.67,2.67-5.2,4.4c-1.54,1.73-2.8,3.7-3.8,5.9-.13.13-.28.15-.45.05-.17-.1-.22-.28-.15-.55.8-2.07,2.02-4.07,3.65-6,1.63-1.93,3.58-3.63,5.85-5.1,2.27-1.47,4.82-2.63,7.65-3.5,2.83-.87,5.88-1.3,9.15-1.3h1.55c.5,0,1.02.04,1.55.1,2.4-1.67,5.27-2.9,8.6-3.7.33,0,.5.1.5.3s-.17.37-.5.5c-1.13.33-2.27.75-3.4,1.25-1.13.5-2.2,1.12-3.2,1.85,2.67.4,4.98,1.05,6.95,1.95,1.97.9,3.58,2,4.85,3.3,1.27,1.3,2.2,2.7,2.8,4.2s.9,3.05.9,4.65c0,2-.38,3.83-1.15,5.5-.77,1.67-1.78,3.1-3.05,4.3-1.27,1.2-2.72,2.13-4.35,2.8-1.63.67-3.28,1-4.95,1Zm-12.5,34.9c3,0,5.68-.42,8.05-1.25,2.37-.83,4.37-1.97,6-3.4,1.63-1.43,2.87-3.12,3.7-5.05.83-1.93,1.25-4.03,1.25-6.3,0-9.67-5.04-15.83-15.1-18.5-.2-.2-.17-.47.1-.8.27-.33.63-.63,1.1-.9.47-.27,1-.47,1.6-.6.6-.13,1.1-.17,1.5-.1.6.27,1.15.45,1.65.55.5.1,1.15.15,1.95.15,1.2,0,2.38-.25,3.55-.75,1.17-.5,2.2-1.22,3.1-2.15.9-.93,1.63-2.02,2.2-3.25.57-1.23.85-2.62.85-4.15,0-3.2-1.15-6.05-3.45-8.55s-5.85-4.18-10.65-5.05c-2.2,2.27-4.17,5.07-5.9,8.4-1.73,3.33-3.2,7.33-4.4,12-1.73,6.33-3.52,11.48-5.35,15.45-1.83,3.97-3.72,7.08-5.65,9.35-1.93,2.27-3.93,3.83-6,4.7-2.07.87-4.17,1.33-6.3,1.4,3.4,2.53,7.37,4.63,11.9,6.3,4.53,1.67,9.3,2.5,14.3,2.5Z"/><path class="cls-1" d="m659.31,439.27c1.8,0,3.13.6,4,1.8.87,1.2,1.3,2.77,1.3,4.7,0,2.27-.43,4.53-1.3,6.8-.87,2.27-1.97,4.32-3.3,6.15-1.33,1.83-2.79,3.32-4.35,4.45-1.57,1.13-3.02,1.7-4.35,1.7-1.6,0-2.87-.63-3.8-1.9-.93-1.27-1.4-3.07-1.4-5.4,0-1.87.37-3.87,1.1-6,.73-2.13,1.72-4.12,2.95-5.95,1.23-1.83,2.63-3.35,4.2-4.55,1.57-1.2,3.22-1.8,4.95-1.8Zm-6,22.5c1,0,1.98-.35,2.95-1.05.96-.7,1.82-1.63,2.55-2.8.73-1.17,1.32-2.52,1.75-4.05.43-1.53.65-3.13.65-4.8,0-2-.33-3.58-1-4.75-.67-1.17-1.77-1.75-3.3-1.75-1,0-1.97.35-2.9,1.05-.93.7-1.75,1.63-2.45,2.8-.7,1.17-1.25,2.53-1.65,4.1-.4,1.57-.6,3.22-.6,4.95,0,4.2,1.33,6.3,4,6.3Z"/><path class="cls-1" d="m679.51,439.27c1.33,0,2.45.22,3.35.65.9.43,1.35.92,1.35,1.45,0,.73-.15,1.57-.45,2.5-.3.93-.62,1.7-.95,2.3-.13.13-.32.15-.55.05-.23-.1-.32-.25-.25-.45.2-.47.33-1,.4-1.6.07-.6.03-1.13-.1-1.6-.33-1.33-1.27-2-2.8-2-1.13,0-2.05.33-2.75,1-.7.67-1.05,1.67-1.05,3,0,1.07.28,2.08.85,3.05.57.97,1.2,1.93,1.9,2.9.7.97,1.33,2,1.9,3.1.57,1.1.85,2.32.85,3.65,0,2.13-.75,3.93-2.25,5.4-1.5,1.47-3.75,2.2-6.75,2.2-2.07,0-3.77-.37-5.1-1.1-1.33-.73-2-1.5-2-2.3,0-.6.37-1.5,1.1-2.7.73-1.2,1.57-2.17,2.5-2.9.2-.13.38-.1.55.1.17.2.18.4.05.6-.53.53-.93,1.15-1.2,1.85-.27.7-.33,1.32-.2,1.85.2,1.13.72,1.98,1.55,2.55.83.57,1.82.85,2.95.85,1.73,0,3.08-.47,4.05-1.4.97-.93,1.45-2.13,1.45-3.6,0-1.27-.3-2.45-.9-3.55-.6-1.1-1.25-2.17-1.95-3.2-.7-1.03-1.33-2.07-1.9-3.1-.57-1.03-.85-2.15-.85-3.35,0-1.73.65-3.2,1.95-4.4,1.3-1.2,3.05-1.8,5.25-1.8Z"/><path class="cls-1" d="m698.3,439.27c1.33,0,2.45.22,3.35.65.9.43,1.35.92,1.35,1.45,0,.73-.15,1.57-.45,2.5-.3.93-.62,1.7-.95,2.3-.13.13-.32.15-.55.05-.23-.1-.32-.25-.25-.45.2-.47.33-1,.4-1.6.07-.6.03-1.13-.1-1.6-.33-1.33-1.27-2-2.8-2-1.13,0-2.05.33-2.75,1-.7.67-1.05,1.67-1.05,3,0,1.07.28,2.08.85,3.05.57.97,1.2,1.93,1.9,2.9.7.97,1.33,2,1.9,3.1.57,1.1.85,2.32.85,3.65,0,2.13-.75,3.93-2.25,5.4-1.5,1.47-3.75,2.2-6.75,2.2-2.07,0-3.77-.37-5.1-1.1-1.33-.73-2-1.5-2-2.3,0-.6.37-1.5,1.1-2.7.73-1.2,1.57-2.17,2.5-2.9.2-.13.38-.1.55.1.17.2.18.4.05.6-.53.53-.93,1.15-1.2,1.85-.27.7-.33,1.32-.2,1.85.2,1.13.72,1.98,1.55,2.55.83.57,1.82.85,2.95.85,1.73,0,3.08-.47,4.05-1.4.97-.93,1.45-2.13,1.45-3.6,0-1.27-.3-2.45-.9-3.55-.6-1.1-1.25-2.17-1.95-3.2-.7-1.03-1.33-2.07-1.9-3.1-.57-1.03-.85-2.15-.85-3.35,0-1.73.65-3.2,1.95-4.4,1.3-1.2,3.05-1.8,5.25-1.8Z"/><path class="cls-1" d="m723.8,443.67c0,.93-.37,1.8-1.1,2.6-.73.8-1.73,1.52-3,2.15-1.27.63-2.72,1.22-4.35,1.75-1.63.53-3.35,1.03-5.15,1.5-.07.73-.12,1.47-.15,2.2-.03.73-.05,1.53-.05,2.4,0,1.67.37,3.07,1.1,4.2.73,1.13,1.77,1.7,3.1,1.7s2.58-.33,3.75-1c1.17-.67,2.22-1.57,3.15-2.7.27-.13.46-.1.6.1.13.2.13.43,0,.7-1.13,1.53-2.55,2.85-4.25,3.95-1.7,1.1-3.48,1.65-5.35,1.65-1.73,0-3.15-.57-4.25-1.7-1.1-1.13-1.65-2.8-1.65-5,0-2,.37-4.12,1.1-6.35.73-2.23,1.7-4.28,2.9-6.15,1.2-1.87,2.58-3.4,4.15-4.6,1.57-1.2,3.21-1.8,4.95-1.8,1.27,0,2.33.45,3.2,1.35.87.9,1.3,1.92,1.3,3.05Zm-6.6-1.8c-1.53,0-2.9.67-4.1,2-1.2,1.33-2.07,3.43-2.6,6.3,3.2-.47,5.55-1.15,7.05-2.05s2.25-1.92,2.25-3.05c0-.93-.23-1.7-.7-2.3-.47-.6-1.1-.9-1.9-.9Z"/></g></svg>