<?xml version="1.0" encoding="UTF-8"?><svg id="Layer_1" xmlns="http://www.w3.org/2000/svg" width="619" height="620" viewBox="0 0 619 620"><defs><style>.cls-1,.cls-2{fill:#7c459c;}.cls-2,.cls-3{stroke:#7c459c;stroke-miterlimit:10;stroke-width:10px;}.cls-3{fill:#efebe0;}</style></defs><rect class="cls-3" x="10" y="11" width="600.5" height="600" rx="300" ry="300"/><path class="cls-1" d="m135.47,371.41v-141.16h17.34l49.59,103.05h-9.08l48.78-103.05h17.34l.16,141.16h-19.93l-.16-102.24h4.21l-41.49,86.11h-9.4l-42.14-86.11h4.86v102.24h-20.1Z"/><line class="cls-2" x1="310.5" y1="109" x2="310.5" y2="514"/><path class="cls-1" d="m363.18,229h59.55c18.19,0,32.5,3.02,42.92,9.06,10.42,6.04,15.63,15.55,15.63,28.54,0,7.79-2.52,14.12-7.57,19-5.05,4.87-11.29,8.35-18.73,10.42v.39c9.1,2.08,16.54,5.91,22.33,11.49,5.79,5.59,8.68,12.92,8.68,22.02,0,12.99-5.44,23.05-16.31,30.2-10.88,7.14-25.29,10.72-43.23,10.72h-63.27s0-141.83,0-141.83Zm59.55,60.4c12.41,0,21.34-2.01,26.8-6.04,5.46-4.03,8.19-9.61,8.19-16.75s-2.73-12.63-8.19-16.46c-5.46-3.83-14.39-5.75-26.8-5.75h-36.22s0,45,0,45h36.22Zm3.72,66.05c12.41,0,21.5-2.3,27.29-6.92,5.79-4.61,8.68-10.81,8.68-18.61,0-7.79-2.9-13.96-8.68-18.51-5.79-4.55-14.89-6.82-27.29-6.82h-39.95s0,50.85,0,50.85h39.95Z"/></svg>