<svg width="82" height="72" viewBox="0 0 82 72" fill="none" xmlns="http://www.w3.org/2000/svg">
<path d="M25.4765 25.973C30.6471 38.2637 35.9337 43.1867 49.3214 48.4766L43.5999 55.6464C28.2223 49.0478 20.4973 38.0332 16.8302 29.4515L25.4765 25.973Z" fill="#F25C05"/>
<path d="M29.7204 8.98242C32.4257 8.98921 34.4996 11.0129 34.3344 13.2894C34.0744 16.8718 34.4051 19.4595 35.2641 22.6698C35.7359 24.4333 34.7171 26.2153 33.0838 27.3572C30.8824 28.8964 29.2073 30.8644 27.877 32.5592C26.0332 34.9083 19.618 34.7002 18.178 32.1204C15.2184 26.8186 13.1609 17.0711 17.3623 10.5191C18.0222 9.48998 19.3639 8.95645 20.7589 8.95995L29.7204 8.98242Z" fill="#F25C05"/>
<path d="M71.1452 48.0802C71.4649 45.8329 69.3136 43.869 66.591 43.7344C62.3065 43.5225 59.2744 42.9388 55.5673 41.8422C53.5309 41.2398 51.2919 41.873 49.7383 43.0929C47.6444 44.7372 45.1051 45.8932 42.9319 46.7955C39.9197 48.0461 39.3896 53.3981 42.2778 54.902C48.2135 57.9928 59.5363 60.8654 67.8237 58.1589C69.1254 57.7338 69.9214 56.6834 70.0862 55.5245L71.1452 48.0802Z" fill="#F25C05"/>
</svg>
