<svg width="70" height="70" viewBox="0 0 70 70" fill="none" xmlns="http://www.w3.org/2000/svg">
<ellipse cx="35" cy="34.9242" rx="34.1797" ry="17.971" fill="#F25C05"/>
<ellipse cx="35.0001" cy="34.9242" rx="32.8445" ry="16.6359" fill="#7C459C"/>
<path fill-rule="evenodd" clip-rule="evenodd" d="M41.6491 40.3181L43.2779 31.9334C43.6518 30.0375 43.3313 28.6223 42.37 27.7411C41.4354 26.8866 39.8333 26.4594 37.4834 26.4594H34.6529L35.454 22.2937C35.4807 22.1335 35.454 21.9733 35.3472 21.8398C35.2404 21.7062 35.1069 21.6528 34.9466 21.6528H31.048C30.781 21.6528 30.5674 21.8398 30.514 22.0801L28.7783 30.9721C28.6181 29.9574 28.2442 29.1029 27.6034 28.4087C26.4551 27.1002 24.666 26.4326 22.2361 26.4326H14.7326C14.4655 26.4326 14.2519 26.6196 14.1985 26.8599L10.7004 44.911C10.6737 45.0713 10.7004 45.2315 10.8072 45.365C10.9141 45.4985 11.0476 45.5519 11.2078 45.5519H15.1331C15.4001 45.5519 15.6138 45.365 15.6672 45.1247L16.5217 40.7721H19.4323C20.9543 40.7721 22.2628 40.6119 23.2508 40.2914C24.2922 39.9443 25.2268 39.3835 26.0546 38.6092C26.7222 37.995 27.2829 37.3007 27.7102 36.553L27.0159 40.1579C26.9892 40.3181 27.0159 40.4784 27.1227 40.6119C27.2295 40.7454 27.363 40.7988 27.5232 40.7988H31.4219C31.6889 40.7988 31.9025 40.6119 31.9559 40.3716L33.8785 30.4915H36.5488C37.697 30.4915 38.0175 30.7051 38.1243 30.8119C38.2044 30.892 38.3646 31.2125 38.1777 32.2005L36.6289 40.1846C36.6022 40.3448 36.6289 40.5051 36.7357 40.6386C36.8425 40.7721 36.9761 40.8255 37.1363 40.8255H41.1417C41.382 40.7454 41.5957 40.5585 41.6491 40.3181V40.3181ZM23.5979 33.3754C23.3576 34.6304 22.9036 35.5383 22.2361 36.0457C21.5685 36.553 20.4737 36.8201 19.0317 36.8201H17.296L18.5511 30.358H20.7941C22.4497 30.358 23.1173 30.7051 23.3843 30.9988C23.7314 31.4261 23.8115 32.2539 23.5979 33.3754V33.3754Z" fill="#F25C05"/>
<path fill-rule="evenodd" clip-rule="evenodd" d="M58.3117 28.4086C57.1634 27.1002 55.3743 26.4326 52.9444 26.4326H45.3875C45.1204 26.4326 44.9068 26.6195 44.8534 26.8599L41.3553 44.8843C41.3286 45.0445 41.3553 45.2047 41.4621 45.3383C41.569 45.4718 41.7025 45.5252 41.8627 45.5252H45.788C46.055 45.5252 46.2687 45.3383 46.3221 45.0979L47.1766 40.7454H50.0872C51.6092 40.7454 52.9177 40.5851 53.9057 40.2647C54.9471 39.9176 55.8817 39.3568 56.7095 38.5824C57.4038 37.9416 57.9912 37.2206 58.4185 36.4462C58.8457 35.6718 59.1662 34.8173 59.3531 33.8827C59.807 31.5596 59.4599 29.7438 58.3117 28.4086V28.4086ZM54.2261 33.3754C53.9858 34.6304 53.5318 35.5383 52.8643 36.0457C52.1967 36.553 51.1019 36.82 49.6599 36.82H47.9242L49.1793 30.3579H51.4223C53.0779 30.3579 53.7455 30.7051 54.0125 30.9988C54.3863 31.4261 54.4664 32.2538 54.2261 33.3754V33.3754Z" fill="#F25C05"/>
<path fill-rule="evenodd" clip-rule="evenodd" d="M20.794 29.8239C22.2894 29.8239 23.2774 30.0909 23.7847 30.6517C24.2921 31.2124 24.3989 32.147 24.1319 33.4822C23.8648 34.8707 23.3308 35.8854 22.5564 36.4729C21.782 37.0604 20.6071 37.3541 19.0316 37.3541H16.6551L18.1237 29.8239H20.794V29.8239ZM11.2344 44.9911H15.1597L16.0943 40.2113H19.4589C20.9542 40.2113 22.1559 40.0511 23.1172 39.7307C24.0785 39.4102 24.933 38.9029 25.734 38.1552C26.4016 37.541 26.9357 36.8734 27.3362 36.1525C27.7368 35.4315 28.0305 34.6304 28.1907 33.7492C28.618 31.613 28.2975 29.9574 27.2561 28.7558C26.2147 27.5541 24.5591 26.9667 22.2894 26.9667H14.7325L11.2344 44.9911V44.9911Z" fill="#EFEBE0"/>
<path fill-rule="evenodd" clip-rule="evenodd" d="M31.0746 22.1869H34.9732L34.0386 26.9667H37.51C39.6996 26.9667 41.195 27.3405 42.0228 28.1149C42.8506 28.8893 43.0909 30.1176 42.7705 31.8266L41.1416 40.2113H37.1896L38.7383 32.2272C38.9253 31.3193 38.8452 30.7051 38.5514 30.3847C38.2577 30.0642 37.5901 29.8773 36.6021 29.8773H33.4779L31.4752 40.2113H27.5765L31.0746 22.1869V22.1869Z" fill="#EFEBE0"/>
<path fill-rule="evenodd" clip-rule="evenodd" d="M51.4222 29.8239C52.9175 29.8239 53.9055 30.0909 54.4129 30.6517C54.9203 31.2124 55.0271 32.147 54.76 33.4822C54.493 34.8707 53.959 35.8854 53.1846 36.4729C52.4102 37.0604 51.2353 37.3541 49.6598 37.3541H47.2832L48.7519 29.8239H51.4222V29.8239ZM41.8625 44.9911H45.7879L46.7225 40.2113H50.087C51.5824 40.2113 52.784 40.0511 53.7453 39.7307C54.7066 39.4102 55.5611 38.9029 56.3622 38.1552C57.0298 37.541 57.5638 36.8734 57.9644 36.1525C58.3649 35.4315 58.6587 34.6304 58.8189 33.7492C59.2461 31.613 58.9257 29.9574 57.8843 28.7558C56.8429 27.5541 55.1873 26.9667 52.9175 26.9667H45.3606L41.8625 44.9911V44.9911Z" fill="#EFEBE0"/>
</svg>
