<svg width="100" height="100" viewBox="0 0 100 100" fill="none" xmlns="http://www.w3.org/2000/svg">
<g clip-path="url(#clip0_81_443)">
<path d="M0 36.1905C0 23.5226 0 17.1887 2.46533 12.3502C4.63389 8.09417 8.09417 4.63389 12.3502 2.46533C17.1887 0 23.5226 0 36.1905 0H63.8095C76.4774 0 82.8113 0 87.6498 2.46533C91.9058 4.63389 95.3661 8.09417 97.5347 12.3502C100 17.1887 100 23.5226 100 36.1905V63.8095C100 76.4774 100 82.8113 97.5347 87.6498C95.3661 91.9058 91.9058 95.3661 87.6498 97.5347C82.8113 100 76.4774 100 63.8095 100H36.1905C23.5226 100 17.1887 100 12.3502 97.5347C8.09417 95.3661 4.63389 91.9058 2.46533 87.6498C0 82.8113 0 76.4774 0 63.8095V36.1905Z" fill="#5F5E66"/>
<path d="M21.4287 73.2722V29.2978C21.4287 28.9986 21.5537 28.8277 21.8454 28.8277C26.1512 28.8277 30.4551 28.5713 34.762 28.5713C41.7507 28.5713 49.3179 30.9609 51.9704 38.2721C52.5954 40.067 52.9287 41.9046 52.9287 43.8277C52.9287 47.5029 52.0954 50.5371 50.4287 52.9303C45.773 59.6153 37.7037 59.5115 30.4704 59.5115V73.2294C30.5269 73.6355 30.1809 73.8277 29.8454 73.8277H21.9287C21.5954 73.8277 21.4287 73.6568 21.4287 73.2722ZM30.512 37.0756V51.4345C33.3801 51.6447 36.3813 51.6675 39.137 50.7508C42.1793 49.8732 43.8454 47.2397 43.8454 44.0841C43.93 41.3952 42.4647 38.8152 39.9704 37.8448C37.2479 36.7128 33.4509 36.645 30.512 37.0756Z" fill="#EFEBE0"/>
<path d="M78.9168 48.5976C77.656 47.9332 76.3133 47.4472 74.9253 47.1527C73.1416 46.733 66.1065 45.2631 66.1039 48.9416C66.1663 50.9953 69.4262 52.0015 70.8666 52.5882C75.9232 54.3242 81.6454 57.4274 81.533 63.6656C81.6876 71.4314 74.1634 74.5358 67.7138 74.5365C64.3561 74.5713 60.8583 74.0512 57.7854 72.61C57.4921 72.4547 57.3033 72.1226 57.3158 71.7843V64.3536C57.2828 64.0556 57.6025 63.7953 57.8525 64.0096C60.8633 65.8304 64.432 66.7144 67.915 66.7617C69.4525 66.7617 72.4999 66.6126 72.4768 64.3536C72.4768 62.1856 68.8314 61.1889 67.3783 60.6381C65.2719 59.8862 63.2748 58.8447 61.4414 57.542C58.8794 55.7145 57.2721 52.7844 57.3159 49.5608C57.3009 42.2487 64.2268 38.9667 70.4643 38.9651C73.3802 38.9411 76.5114 39.157 79.2258 40.3412C79.6161 40.4561 79.697 40.8672 79.6954 41.2356V48.1848C79.7202 48.6161 79.2411 48.763 78.9168 48.5976Z" fill="#EFEBE0"/>
</g>
<defs>
<clipPath id="clip0_81_443">
<rect width="100" height="100" fill="white"/>
</clipPath>
</defs>
</svg>
