<svg width="70" height="70" viewBox="0 0 70 70" fill="none" xmlns="http://www.w3.org/2000/svg">
<path d="M35 13.9453C25.6667 13.9453 19.8333 18.612 17.5 27.9453C21 23.2786 25.0833 21.5286 29.75 22.6953C32.4126 23.361 34.3157 25.2926 36.4222 27.4308C39.8537 30.914 43.8253 34.9453 52.5 34.9453C61.8333 34.9453 67.6667 30.2786 70 20.9453C66.5 25.612 62.4167 27.362 57.75 26.1953C55.0874 25.5297 53.1843 23.5981 51.0778 21.4598C47.6463 17.9767 43.6747 13.9453 35 13.9453ZM17.5 34.9453C8.16667 34.9453 2.33333 39.612 0 48.9453C3.5 44.2786 7.58333 42.5286 12.25 43.6953C14.9126 44.361 16.8157 46.2926 18.9222 48.4308C22.3537 51.914 26.3253 55.9453 35 55.9453C44.3333 55.9453 50.1667 51.2786 52.5 41.9453C49 46.612 44.9167 48.362 40.25 47.1953C37.5874 46.5297 35.6843 44.5981 33.5778 42.4598C30.1463 38.9767 26.1747 34.9453 17.5 34.9453Z" fill="url(#paint0_linear_127_496)"/>
<defs>
<linearGradient id="paint0_linear_127_496" x1="-1.94445" y1="27.3853" x2="58.512" y2="62.2431" gradientUnits="userSpaceOnUse">
<stop stop-color="#7C459C"/>
<stop offset="0.5" stop-color="#EFEBE0"/>
<stop offset="0.630208" stop-color="#EFEBE0"/>
<stop offset="1" stop-color="#FF7262"/>
</linearGradient>
</defs>
</svg>
