<svg width="71" height="70" viewBox="0 0 71 70" fill="none" xmlns="http://www.w3.org/2000/svg">
<g clip-path="url(#clip0_127_497)">
<mask id="mask0_127_497" style="mask-type:alpha" maskUnits="userSpaceOnUse" x="0" y="0" width="71" height="70">
<path d="M49.8344 69.6156C50.9412 70.0468 52.2035 70.0191 53.3208 69.4816L67.7895 62.5196C69.3098 61.788 70.2767 60.249 70.2767 58.561V11.3535C70.2767 9.66544 69.3098 8.12674 67.7895 7.39515L53.3208 0.432821C51.8546 -0.272675 50.1386 -0.0998726 48.8519 0.83564C48.668 0.969281 48.4928 1.11849 48.3287 1.28293L20.6298 26.5531L8.56475 17.3947C7.44161 16.5422 5.87065 16.612 4.82754 17.5609L0.957892 21.0809C-0.318038 22.2416 -0.319501 24.2489 0.954732 25.4114L11.4179 34.9571L0.954732 44.5029C-0.319501 45.6655 -0.318038 47.6728 0.957892 48.8335L4.82754 52.3533C5.87065 53.3023 7.44161 53.3721 8.56475 52.5197L20.6298 43.3612L48.3287 68.6314C48.7668 69.0698 49.2812 69.4001 49.8344 69.6156ZM52.7182 19.0036L31.7011 34.9571L52.7182 50.9107V19.0036Z" fill="white"/>
</mask>
<g mask="url(#mask0_127_497)">
<path d="M67.8324 7.40602L53.3524 0.434107C51.6765 -0.372889 49.6733 -0.0324799 48.3578 1.2829L0.955312 44.503C-0.319696 45.6655 -0.31823 47.6728 0.958474 48.8335L4.83046 52.3534C5.87424 53.3024 7.44615 53.3721 8.56995 52.5197L65.6536 9.21472C67.5686 7.76191 70.3193 9.1278 70.3193 11.5316V11.3635C70.3193 9.67615 69.3527 8.138 67.8324 7.40602Z" fill="#F25C05"/>
<path d="M67.8324 62.5083L53.3524 69.4803C51.6765 70.2871 49.6733 69.9467 48.3578 68.6314L0.955312 25.4113C-0.319696 24.2488 -0.31823 22.2415 0.958474 21.0808L4.83046 17.5608C5.87424 16.612 7.44615 16.5421 8.56995 17.3947L65.6536 60.6995C67.5686 62.1523 70.3193 60.7865 70.3193 58.3826V58.5509C70.3193 60.238 69.3527 61.7762 67.8324 62.5083Z" fill="#7C459C"/>
<path d="M53.307 69.4858C51.6305 70.2921 49.6274 69.9514 48.3119 68.6359C49.9326 70.2567 52.7042 69.1086 52.7042 66.8164V3.10666C52.7042 0.814429 49.9326 -0.333536 48.3119 1.28732C49.6274 -0.0281784 51.6305 -0.369068 53.307 0.437216L67.7846 7.39955C69.3059 8.13114 70.2733 9.66984 70.2733 11.3579V58.5655C70.2733 60.2535 69.3059 61.7922 67.7846 62.5238L53.307 69.4858Z" fill="#F25C05"/>
<path d="M49.8345 69.6155C50.9413 70.0465 52.2035 70.0191 53.3206 69.4815L67.7893 62.5192C69.3099 61.7876 70.2767 60.2489 70.2767 58.5609V11.3534C70.2767 9.66531 69.3099 8.12661 67.7896 7.39502L53.3206 0.4327C51.8546 -0.272798 50.1386 -0.0999951 48.8517 0.835517C48.668 0.969158 48.4929 1.11837 48.3284 1.28281L20.6298 26.5529L8.56473 17.3946C7.44163 16.542 5.87064 16.6119 4.82753 17.5608L0.957892 21.0808C-0.318038 22.2414 -0.319501 24.2488 0.954732 25.4113L11.4179 34.957L0.954732 44.5029C-0.319501 45.6654 -0.318038 47.6727 0.957892 48.8334L4.82753 52.3533C5.87064 53.3023 7.44163 53.372 8.56473 52.5196L20.6298 43.3611L48.3284 68.6314C48.7666 69.0698 49.2813 69.4 49.8345 69.6155ZM52.7183 19.0034L31.7012 34.957L52.7183 50.9107V19.0034Z" fill="url(#paint0_linear_127_497)" fill-opacity="0.25"/>
</g>
</g>
<defs>
<linearGradient id="paint0_linear_127_497" x1="35.1384" y1="-0.000122344" x2="35.1384" y2="69.9142" gradientUnits="userSpaceOnUse">
<stop stop-color="#EFEBE0"/>
<stop offset="1" stop-color="white" stop-opacity="0"/>
</linearGradient>
<clipPath id="clip0_127_497">
<rect width="70.5512" height="70" fill="white"/>
</clipPath>
</defs>
</svg>
