<svg width="101" height="100" viewBox="0 0 101 100" fill="none" xmlns="http://www.w3.org/2000/svg">
<g clip-path="url(#clip0_81_437)">
<mask id="mask0_81_437" style="mask-type:alpha" maskUnits="userSpaceOnUse" x="0" y="0" width="101" height="100">
<path d="M71.192 99.4508C72.7732 100.067 74.5764 100.027 76.1725 99.2595L96.8422 89.3137C99.014 88.2685 100.395 86.07 100.395 83.6586V16.2193C100.395 13.8078 99.014 11.6096 96.8422 10.5645L76.1725 0.618315C74.0779 -0.389536 71.6265 -0.142675 69.7884 1.19377C69.5257 1.38469 69.2754 1.59785 69.0409 1.83276L29.4711 37.9329L12.2354 24.8496C10.6309 23.6317 8.38665 23.7315 6.89648 25.087L1.36842 30.1156C-0.45434 31.7737 -0.45643 34.6412 1.3639 36.302L16.3113 49.9387L1.3639 63.5756C-0.45643 65.2365 -0.45434 68.104 1.36842 69.7621L6.89648 74.7905C8.38665 76.1462 10.6309 76.2458 12.2354 75.0281L29.4711 61.9446L69.0409 98.0449C69.6668 98.6712 70.4018 99.143 71.192 99.4508ZM75.3117 27.1479L45.2873 49.9387L75.3117 72.7296V27.1479Z" fill="white"/>
</mask>
<g mask="url(#mask0_81_437)">
<path d="M96.9035 10.5801L76.2177 0.620258C73.8235 -0.532594 70.9619 -0.0462953 69.0826 1.83282L1.36473 63.5758C-0.456709 65.2366 -0.454615 68.1041 1.36925 69.7622L6.90066 74.7906C8.39177 76.1463 10.6374 76.246 12.2428 75.0283L93.7908 13.164C96.5266 11.0885 100.456 13.0398 100.456 16.4738V16.2336C100.456 13.8232 99.0753 11.6258 96.9035 10.5801Z" fill="#5F5E66"/>
<path d="M96.9035 89.2976L76.2177 99.2575C73.8235 100.41 70.9619 99.9238 69.0826 98.0449L1.36473 36.3019C-0.456709 34.6412 -0.454615 31.7735 1.36925 30.1155L6.90066 25.0869C8.39177 23.7314 10.6374 23.6316 12.2428 24.8495L93.7908 86.7136C96.5266 88.7889 100.456 86.8379 100.456 83.4037V83.6441C100.456 86.0543 99.0753 88.2517 96.9035 89.2976Z" fill="#988574"/>
<path d="M76.153 99.2655C73.758 100.417 70.8964 99.9307 69.0171 98.0514C71.3325 100.367 75.2918 98.7267 75.2918 95.4521V4.43816C75.2918 1.16354 71.3325 -0.476411 69.0171 1.83911C70.8964 -0.0401851 73.758 -0.52717 76.153 0.624664L96.8352 10.5709C99.0086 11.616 100.391 13.8141 100.391 16.2257V83.6651C100.391 86.0765 99.0086 88.2746 96.8352 89.3197L76.153 99.2655Z" fill="#A5948A"/>
<path d="M71.1921 99.4509C72.7733 100.067 74.5765 100.027 76.1722 99.2595L96.8419 89.3133C99.0141 88.2682 100.395 86.0701 100.395 83.6587V16.2193C100.395 13.8078 99.0141 11.6096 96.8423 10.5645L76.1722 0.618317C74.0781 -0.389537 71.6266 -0.142676 69.7881 1.19377C69.5258 1.38469 69.2756 1.59785 69.0406 1.83275L29.4711 37.9329L12.2353 24.8496C10.6309 23.6317 8.38663 23.7315 6.89646 25.087L1.36842 30.1156C-0.45434 31.7736 -0.45643 34.6413 1.3639 36.302L16.3113 49.9388L1.3639 63.5757C-0.45643 65.2365 -0.45434 68.1041 1.36842 69.7621L6.89646 74.7905C8.38663 76.1463 10.6309 76.2459 12.2353 75.0282L29.4711 61.9446L69.0406 98.045C69.6665 98.6713 70.4019 99.143 71.1921 99.4509ZM75.3118 27.1479L45.2874 49.9388L75.3118 72.7297V27.1479Z" fill="url(#paint0_linear_81_437)" fill-opacity="0.25"/>
</g>
</g>
<defs>
<linearGradient id="paint0_linear_81_437" x1="50.1977" y1="-3.91166e-07" x2="50.1977" y2="99.8776" gradientUnits="userSpaceOnUse">
<stop stop-color="white"/>
<stop offset="1" stop-color="white" stop-opacity="0"/>
</linearGradient>
<clipPath id="clip0_81_437">
<rect width="100.787" height="100" fill="white"/>
</clipPath>
</defs>
</svg>
