<svg width="70" height="70" viewBox="0 0 70 70" fill="none" xmlns="http://www.w3.org/2000/svg">
<g clip-path="url(#clip0_127_494)">
<path d="M4.95577 34.8634C4.95577 46.702 11.8357 56.9328 21.8121 61.781L7.5452 22.6914C5.88569 26.4111 4.95577 30.5274 4.95577 34.8634ZM55.0553 33.3541C55.0553 29.6578 53.7276 27.098 52.5888 25.1055C51.0727 22.6419 49.6516 20.5555 49.6516 18.0919C49.6516 15.3425 51.7368 12.7833 54.674 12.7833C54.8066 12.7833 54.9324 12.7998 55.0615 12.8072C49.7404 7.9322 42.6511 4.95577 34.8646 4.95577C24.4158 4.95577 15.223 10.3167 9.87512 18.4367C10.5768 18.4578 11.2381 18.4726 11.7998 18.4726C14.9282 18.4726 19.7707 18.093 19.7707 18.093C21.383 17.998 21.5731 20.366 19.9625 20.5567C19.9625 20.5567 18.3423 20.7473 16.5393 20.8418L27.4309 53.2381L33.9762 33.608L29.3163 20.8407C27.7058 20.7462 26.18 20.5555 26.18 20.5555C24.5683 20.4611 24.7572 17.9968 26.3689 18.0919C26.3689 18.0919 31.3082 18.4715 34.2471 18.4715C37.3749 18.4715 42.218 18.0919 42.218 18.0919C43.8314 17.9968 44.0209 20.3649 42.4098 20.5555C42.4098 20.5555 40.7861 20.7462 38.9866 20.8407L49.795 52.9917L52.7783 43.0227C54.0713 38.8859 55.0553 35.9146 55.0553 33.3541ZM35.3893 37.4796L26.4156 63.5554C29.095 64.3431 31.9285 64.7739 34.8646 64.7739C38.3475 64.7739 41.6876 64.1718 44.7966 63.0785C44.7163 62.9505 44.6435 62.8145 44.5837 62.6665L35.3893 37.4796ZM61.1083 20.514C61.2369 21.4667 61.3098 22.4893 61.3098 23.5894C61.3098 26.6245 60.7429 30.0363 59.0356 34.3023L49.8998 60.7162C58.7915 55.5311 64.7722 45.8978 64.7722 34.864C64.7728 29.6641 63.4445 24.7743 61.1083 20.514ZM34.8646 0C15.6407 0 0 15.6396 0 34.8634C0 54.0895 15.6407 69.7285 34.8646 69.7285C54.0878 69.7285 69.7308 54.0895 69.7308 34.8634C69.7302 15.6396 54.0878 0 34.8646 0ZM34.8646 68.1305C16.5223 68.1305 1.59862 53.2068 1.59862 34.8634C1.59862 16.5211 16.5217 1.59862 34.8646 1.59862C53.2063 1.59862 68.1288 16.5211 68.1288 34.8634C68.1288 53.2068 53.2063 68.1305 34.8646 68.1305Z" fill="#7C459C"/>
</g>
<defs>
<clipPath id="clip0_127_494">
<rect width="70" height="70" fill="white"/>
</clipPath>
</defs>
</svg>
