<svg width="100" height="100" viewBox="0 0 100 100" fill="none" xmlns="http://www.w3.org/2000/svg">
<g clip-path="url(#clip0_81_444)">
<path d="M0 36.1905C0 23.5226 0 17.1887 2.46533 12.3502C4.63389 8.09417 8.09417 4.63389 12.3502 2.46533C17.1887 0 23.5226 0 36.1905 0H63.8095C76.4774 0 82.8113 0 87.6498 2.46533C91.9058 4.63389 95.3661 8.09417 97.5347 12.3502C100 17.1887 100 23.5226 100 36.1905V63.8095C100 76.4774 100 82.8113 97.5347 87.6498C95.3661 91.9058 91.9058 95.3661 87.6498 97.5347C82.8113 100 76.4774 100 63.8095 100H36.1905C23.5226 100 17.1887 100 12.3502 97.5347C8.09417 95.3661 4.63389 91.9058 2.46533 87.6498C0 82.8113 0 76.4774 0 63.8095V36.1905Z" fill="#F8F0E7"/>
<path d="M52.3088 29.4065L39.8312 50.5291L53.1808 72.9591C53.4583 73.4677 53.1808 73.5799 52.7784 73.5799H43.2526C42.5816 73.5799 42.1121 73.5557 41.8437 73.0966C40.9485 71.3078 40.0541 69.5304 39.1604 67.7644C38.2652 65.9991 37.3149 64.1987 36.3095 62.3633C35.3032 60.5293 34.3081 58.6716 33.3242 56.7902C32.429 58.6253 31.4339 60.4601 30.4731 62.2945C29.511 64.1296 28.5606 65.953 27.6221 67.7644C26.683 69.5769 25.7215 71.3773 24.7376 73.1655C24.5584 73.5783 24.2448 73.6209 23.7983 73.6209H14.608C14.2469 73.6209 14.2033 73.3494 14.4068 73.0278L27.3538 51.2171L14.7421 29.3376C14.513 29.0254 14.7102 28.6927 15.0776 28.7184H24.5362C24.9457 28.6952 25.3077 28.8498 25.5425 29.2001C26.3475 31.0351 27.2419 32.8698 28.2258 34.7043C29.209 36.5394 30.2041 38.3513 31.211 40.1398C32.2173 41.9287 33.2124 43.7405 34.0621 45.5753C34.9561 43.695 35.8617 41.8602 36.779 40.071C37.6952 38.2821 38.6343 36.4817 39.5964 34.6699C40.5577 32.8584 41.4857 31.0581 42.3804 29.2688C42.4993 28.8764 42.7834 28.6775 43.1855 28.7184H51.9733C52.3088 28.7184 52.4476 29.1764 52.3088 29.4065Z" fill="#5F5E66"/>
<path d="M71.5611 74.4733C65.645 74.5655 59.4482 72.1298 56.3333 66.7329C54.8123 64.1419 54.052 60.8967 54.0524 56.9972C54.0271 53.8394 54.8139 50.7305 56.3333 47.9839C60.2535 40.9762 68.1513 38.3505 75.6531 39.0395V25.4852C75.6531 25.1648 75.7874 25.0036 76.0558 25.0036H84.5081C84.7391 24.9697 84.9437 25.1794 84.9108 25.4164V66.0792C84.9108 67.7569 85.077 69.4287 85.1791 71.1018C85.1956 71.3877 85.0302 71.6703 84.7765 71.7899C80.6001 73.5763 76.0814 74.4526 71.5611 74.4733ZM75.6531 65.9416V47.1583C69.5262 45.4559 63.5774 50.1229 63.5781 56.5843C63.4327 63.2646 69.1912 67.88 75.6531 65.9416Z" fill="#5F5E66"/>
</g>
<defs>
<clipPath id="clip0_81_444">
<rect width="100" height="100" fill="white"/>
</clipPath>
</defs>
</svg>
