<svg width="70" height="70" viewBox="0 0 70 70" fill="none" xmlns="http://www.w3.org/2000/svg">
<g clip-path="url(#clip0_127_505)">
<path d="M0 25.3333C0 16.4658 0 12.0321 1.72573 8.64515C3.24373 5.66592 5.66592 3.24373 8.64515 1.72573C12.0321 0 16.4658 0 25.3333 0H44.6667C53.5342 0 57.9679 0 61.3549 1.72573C64.3341 3.24373 66.7563 5.66592 68.2743 8.64515C70 12.0321 70 16.4658 70 25.3333V44.6667C70 53.5342 70 57.9679 68.2743 61.3549C66.7563 64.3341 64.3341 66.7563 61.3549 68.2743C57.9679 70 53.5342 70 44.6667 70H25.3333C16.4658 70 12.0321 70 8.64515 68.2743C5.66592 66.7563 3.24373 64.3341 1.72573 61.3549C0 57.9679 0 53.5342 0 44.6667V25.3333Z" fill="#7C459C"/>
<path d="M36.6162 20.5845L27.8819 35.3704L37.2266 51.0714C37.4209 51.4274 37.2266 51.5059 36.9449 51.5059H30.2769C29.8072 51.5059 29.4785 51.489 29.2906 51.1676C28.664 49.9155 28.0379 48.6713 27.4123 47.4351C26.7857 46.1994 26.1205 44.9391 25.4167 43.6543C24.7123 42.3705 24.0157 41.0701 23.327 39.7531C22.7004 41.0377 22.0038 42.3221 21.3312 43.6062C20.6577 44.8908 19.9925 46.1671 19.3355 47.4351C18.6781 48.7038 18.0051 49.9641 17.3164 51.2158C17.1909 51.5048 16.9714 51.5346 16.6588 51.5346H10.2257C9.97289 51.5346 9.94238 51.3446 10.0848 51.1195L19.1477 35.852L10.3195 20.5363C10.1591 20.3178 10.2972 20.0849 10.5543 20.1029H17.1754C17.4621 20.0867 17.7154 20.1949 17.8798 20.4401C18.4433 21.7246 19.0694 23.0089 19.7581 24.293C20.4464 25.5776 21.1429 26.8459 21.8477 28.0978C22.5521 29.3501 23.2487 30.6183 23.8435 31.9027C24.4693 30.5865 25.1033 29.3022 25.7454 28.0497C26.3867 26.7975 27.044 25.5372 27.7175 24.2689C28.3904 23.0009 29.04 21.7407 29.6663 20.4882C29.7495 20.2135 29.9484 20.0742 30.2299 20.1029H36.3814C36.6162 20.1029 36.7133 20.4235 36.6162 20.5845Z" fill="#EFEBE0"/>
<path d="M50.0928 52.1313C45.9515 52.1959 41.6138 50.4909 39.4333 46.713C38.3686 44.8994 37.8364 42.6277 37.8367 39.898C37.819 37.6876 38.3698 35.5114 39.4333 33.5887C42.1775 28.6833 47.7059 26.8454 52.9572 27.3276V17.8397C52.9572 17.6154 53.0512 17.5025 53.2391 17.5025H59.1557C59.3174 17.4788 59.4606 17.6256 59.4376 17.7914V46.2554C59.4376 47.4299 59.5539 48.6001 59.6254 49.7713C59.6369 49.9714 59.5212 50.1692 59.3436 50.2529C56.4201 51.5034 53.257 52.1168 50.0928 52.1313ZM52.9572 46.1591V33.0108C48.6684 31.8191 44.5042 35.086 44.5048 39.609C44.4029 44.2853 48.4339 47.516 52.9572 46.1591Z" fill="#EFEBE0"/>
</g>
<defs>
<clipPath id="clip0_127_505">
<rect width="70" height="70" fill="white"/>
</clipPath>
</defs>
</svg>
