<svg width="142" height="140" viewBox="0 0 142 140" fill="none" xmlns="http://www.w3.org/2000/svg">
<path d="M71.0574 1.5H70.9426C32.8666 1.5 2 32.1685 2 70C2 107.832 32.8666 138.5 70.9426 138.5H71.0574C109.133 138.5 140 107.832 140 70C140 32.1685 109.133 1.5 71.0574 1.5Z" fill="#F0EDE5" stroke="#F25C05" stroke-width="3" stroke-miterlimit="10"/>
<path d="M40.486 86.3053V54.0738H44.4709L55.8671 77.6035H53.7805L64.9905 54.0738H68.9754L69.0122 86.3053H64.4321L64.3953 62.9605H65.3628L55.8281 82.6223H53.6679L43.9837 62.9605H45.1006V86.3053H40.4814H40.486Z" fill="#5F5E66"/>
<path d="M76.959 53.7883H90.6441C94.8243 53.7883 98.1129 54.4779 100.507 55.857C102.902 57.2362 104.099 59.4076 104.099 62.3737C104.099 64.1524 103.52 65.5977 102.36 66.712C101.199 67.824 99.7652 68.6186 98.0554 69.0912V69.1803C100.147 69.6552 101.856 70.5297 103.187 71.8038C104.518 73.0802 105.182 74.7539 105.182 76.8317C105.182 79.7978 103.932 82.0948 101.434 83.7274C98.9333 85.3577 95.6217 86.1751 91.499 86.1751H76.959V53.7906V53.7883ZM90.6441 67.5797C93.496 67.5797 95.5482 67.1207 96.8029 66.2005C98.0577 65.2803 98.6851 64.0062 98.6851 62.3759C98.6851 60.7456 98.0577 59.4921 96.8029 58.6176C95.5482 57.7431 93.496 57.3047 90.6441 57.3047H82.3204V67.5797H90.6441ZM91.499 82.6611C94.3509 82.6611 96.4398 82.1359 97.7704 81.081C99.101 80.0284 99.7652 78.6127 99.7652 76.8317C99.7652 75.053 99.0987 73.6442 97.7704 72.6053C96.4398 71.5664 94.3486 71.048 91.499 71.048H82.3181V82.6588H91.499V82.6611Z" fill="#5F5E66"/>
</svg>
